<?xml version="1.0" encoding="utf-8" standalone="no"?>
<!DOCTYPE svg PUBLIC "-//W3C//DTD SVG 1.1//EN"
  "http://www.w3.org/Graphics/SVG/1.1/DTD/svg11.dtd">
<!-- Created with matplotlib (https://matplotlib.org/) -->
<svg height="360pt" version="1.1" viewBox="0 0 1080 360" width="1080pt" xmlns="http://www.w3.org/2000/svg" xmlns:xlink="http://www.w3.org/1999/xlink">
 <defs>
  <style type="text/css">
*{stroke-linecap:butt;stroke-linejoin:round;}
  </style>
 </defs>
 <g id="figure_1">
  <g id="patch_1">
   <path d="M 0 360 
L 1080 360 
L 1080 0 
L 0 0 
z
" style="fill:#ffffff;"/>
  </g>
  <g id="axes_1">
   <g id="patch_2">
    <path d="M 135 315 
L 972 315 
L 972 43.2 
L 135 43.2 
z
" style="fill:#ffffff;"/>
   </g>
   <g id="matplotlib.axis_1">
    <g id="xtick_1">
     <g id="line2d_1">
      <defs>
       <path d="M 0 0 
L 0 3.5 
" id="m08cfdff692" style="stroke:#000000;stroke-width:0.8;"/>
      </defs>
      <g>
       <use style="stroke:#000000;stroke-width:0.8;" x="172.283021" xlink:href="#m08cfdff692" y="315"/>
      </g>
     </g>
     <g id="text_1">
      <!-- 0 -->
      <defs>
       <path d="M 31.78125 66.40625 
Q 24.171875 66.40625 20.328125 58.90625 
Q 16.5 51.421875 16.5 36.375 
Q 16.5 21.390625 20.328125 13.890625 
Q 24.171875 6.390625 31.78125 6.390625 
Q 39.453125 6.390625 43.28125 13.890625 
Q 47.125 21.390625 47.125 36.375 
Q 47.125 51.421875 43.28125 58.90625 
Q 39.453125 66.40625 31.78125 66.40625 
z
M 31.78125 74.21875 
Q 44.046875 74.21875 50.515625 64.515625 
Q 56.984375 54.828125 56.984375 36.375 
Q 56.984375 17.96875 50.515625 8.265625 
Q 44.046875 -1.421875 31.78125 -1.421875 
Q 19.53125 -1.421875 13.0625 8.265625 
Q 6.59375 17.96875 6.59375 36.375 
Q 6.59375 54.828125 13.0625 64.515625 
Q 19.53125 74.21875 31.78125 74.21875 
z
" id="DejaVuSans-48"/>
      </defs>
      <g transform="translate(169.101771 329.598437)scale(0.1 -0.1)">
       <use xlink:href="#DejaVuSans-48"/>
      </g>
     </g>
    </g>
    <g id="xtick_2">
     <g id="line2d_2">
      <g>
       <use style="stroke:#000000;stroke-width:0.8;" x="324.769812" xlink:href="#m08cfdff692" y="315"/>
      </g>
     </g>
     <g id="text_2">
      <!-- 200 -->
      <defs>
       <path d="M 19.1875 8.296875 
L 53.609375 8.296875 
L 53.609375 0 
L 7.328125 0 
L 7.328125 8.296875 
Q 12.9375 14.109375 22.625 23.890625 
Q 32.328125 33.6875 34.8125 36.53125 
Q 39.546875 41.84375 41.421875 45.53125 
Q 43.3125 49.21875 43.3125 52.78125 
Q 43.3125 58.59375 39.234375 62.25 
Q 35.15625 65.921875 28.609375 65.921875 
Q 23.96875 65.921875 18.8125 64.3125 
Q 13.671875 62.703125 7.8125 59.421875 
L 7.8125 69.390625 
Q 13.765625 71.78125 18.9375 73 
Q 24.125 74.21875 28.421875 74.21875 
Q 39.75 74.21875 46.484375 68.546875 
Q 53.21875 62.890625 53.21875 53.421875 
Q 53.21875 48.921875 51.53125 44.890625 
Q 49.859375 40.875 45.40625 35.40625 
Q 44.1875 33.984375 37.640625 27.21875 
Q 31.109375 20.453125 19.1875 8.296875 
z
" id="DejaVuSans-50"/>
      </defs>
      <g transform="translate(315.226062 329.598437)scale(0.1 -0.1)">
       <use xlink:href="#DejaVuSans-50"/>
       <use x="63.623047" xlink:href="#DejaVuSans-48"/>
       <use x="127.246094" xlink:href="#DejaVuSans-48"/>
      </g>
     </g>
    </g>
    <g id="xtick_3">
     <g id="line2d_3">
      <g>
       <use style="stroke:#000000;stroke-width:0.8;" x="477.256604" xlink:href="#m08cfdff692" y="315"/>
      </g>
     </g>
     <g id="text_3">
      <!-- 400 -->
      <defs>
       <path d="M 37.796875 64.3125 
L 12.890625 25.390625 
L 37.796875 25.390625 
z
M 35.203125 72.90625 
L 47.609375 72.90625 
L 47.609375 25.390625 
L 58.015625 25.390625 
L 58.015625 17.1875 
L 47.609375 17.1875 
L 47.609375 0 
L 37.796875 0 
L 37.796875 17.1875 
L 4.890625 17.1875 
L 4.890625 26.703125 
z
" id="DejaVuSans-52"/>
      </defs>
      <g transform="translate(467.712854 329.598437)scale(0.1 -0.1)">
       <use xlink:href="#DejaVuSans-52"/>
       <use x="63.623047" xlink:href="#DejaVuSans-48"/>
       <use x="127.246094" xlink:href="#DejaVuSans-48"/>
      </g>
     </g>
    </g>
    <g id="xtick_4">
     <g id="line2d_4">
      <g>
       <use style="stroke:#000000;stroke-width:0.8;" x="629.743396" xlink:href="#m08cfdff692" y="315"/>
      </g>
     </g>
     <g id="text_4">
      <!-- 600 -->
      <defs>
       <path d="M 33.015625 40.375 
Q 26.375 40.375 22.484375 35.828125 
Q 18.609375 31.296875 18.609375 23.390625 
Q 18.609375 15.53125 22.484375 10.953125 
Q 26.375 6.390625 33.015625 6.390625 
Q 39.65625 6.390625 43.53125 10.953125 
Q 47.40625 15.53125 47.40625 23.390625 
Q 47.40625 31.296875 43.53125 35.828125 
Q 39.65625 40.375 33.015625 40.375 
z
M 52.59375 71.296875 
L 52.59375 62.3125 
Q 48.875 64.0625 45.09375 64.984375 
Q 41.3125 65.921875 37.59375 65.921875 
Q 27.828125 65.921875 22.671875 59.328125 
Q 17.53125 52.734375 16.796875 39.40625 
Q 19.671875 43.65625 24.015625 45.921875 
Q 28.375 48.1875 33.59375 48.1875 
Q 44.578125 48.1875 50.953125 41.515625 
Q 57.328125 34.859375 57.328125 23.390625 
Q 57.328125 12.15625 50.6875 5.359375 
Q 44.046875 -1.421875 33.015625 -1.421875 
Q 20.359375 -1.421875 13.671875 8.265625 
Q 6.984375 17.96875 6.984375 36.375 
Q 6.984375 53.65625 15.1875 63.9375 
Q 23.390625 74.21875 37.203125 74.21875 
Q 40.921875 74.21875 44.703125 73.484375 
Q 48.484375 72.75 52.59375 71.296875 
z
" id="DejaVuSans-54"/>
      </defs>
      <g transform="translate(620.199646 329.598437)scale(0.1 -0.1)">
       <use xlink:href="#DejaVuSans-54"/>
       <use x="63.623047" xlink:href="#DejaVuSans-48"/>
       <use x="127.246094" xlink:href="#DejaVuSans-48"/>
      </g>
     </g>
    </g>
    <g id="xtick_5">
     <g id="line2d_5">
      <g>
       <use style="stroke:#000000;stroke-width:0.8;" x="782.230188" xlink:href="#m08cfdff692" y="315"/>
      </g>
     </g>
     <g id="text_5">
      <!-- 800 -->
      <defs>
       <path d="M 31.78125 34.625 
Q 24.75 34.625 20.71875 30.859375 
Q 16.703125 27.09375 16.703125 20.515625 
Q 16.703125 13.921875 20.71875 10.15625 
Q 24.75 6.390625 31.78125 6.390625 
Q 38.8125 6.390625 42.859375 10.171875 
Q 46.921875 13.96875 46.921875 20.515625 
Q 46.921875 27.09375 42.890625 30.859375 
Q 38.875 34.625 31.78125 34.625 
z
M 21.921875 38.8125 
Q 15.578125 40.375 12.03125 44.71875 
Q 8.5 49.078125 8.5 55.328125 
Q 8.5 64.0625 14.71875 69.140625 
Q 20.953125 74.21875 31.78125 74.21875 
Q 42.671875 74.21875 48.875 69.140625 
Q 55.078125 64.0625 55.078125 55.328125 
Q 55.078125 49.078125 51.53125 44.71875 
Q 48 40.375 41.703125 38.8125 
Q 48.828125 37.15625 52.796875 32.3125 
Q 56.78125 27.484375 56.78125 20.515625 
Q 56.78125 9.90625 50.3125 4.234375 
Q 43.84375 -1.421875 31.78125 -1.421875 
Q 19.734375 -1.421875 13.25 4.234375 
Q 6.78125 9.90625 6.78125 20.515625 
Q 6.78125 27.484375 10.78125 32.3125 
Q 14.796875 37.15625 21.921875 38.8125 
z
M 18.3125 54.390625 
Q 18.3125 48.734375 21.84375 45.5625 
Q 25.390625 42.390625 31.78125 42.390625 
Q 38.140625 42.390625 41.71875 45.5625 
Q 45.3125 48.734375 45.3125 54.390625 
Q 45.3125 60.0625 41.71875 63.234375 
Q 38.140625 66.40625 31.78125 66.40625 
Q 25.390625 66.40625 21.84375 63.234375 
Q 18.3125 60.0625 18.3125 54.390625 
z
" id="DejaVuSans-56"/>
      </defs>
      <g transform="translate(772.686438 329.598437)scale(0.1 -0.1)">
       <use xlink:href="#DejaVuSans-56"/>
       <use x="63.623047" xlink:href="#DejaVuSans-48"/>
       <use x="127.246094" xlink:href="#DejaVuSans-48"/>
      </g>
     </g>
    </g>
    <g id="xtick_6">
     <g id="line2d_6">
      <g>
       <use style="stroke:#000000;stroke-width:0.8;" x="934.716979" xlink:href="#m08cfdff692" y="315"/>
      </g>
     </g>
     <g id="text_6">
      <!-- 1000 -->
      <defs>
       <path d="M 12.40625 8.296875 
L 28.515625 8.296875 
L 28.515625 63.921875 
L 10.984375 60.40625 
L 10.984375 69.390625 
L 28.421875 72.90625 
L 38.28125 72.90625 
L 38.28125 8.296875 
L 54.390625 8.296875 
L 54.390625 0 
L 12.40625 0 
z
" id="DejaVuSans-49"/>
      </defs>
      <g transform="translate(921.991979 329.598437)scale(0.1 -0.1)">
       <use xlink:href="#DejaVuSans-49"/>
       <use x="63.623047" xlink:href="#DejaVuSans-48"/>
       <use x="127.246094" xlink:href="#DejaVuSans-48"/>
       <use x="190.869141" xlink:href="#DejaVuSans-48"/>
      </g>
     </g>
    </g>
   </g>
   <g id="matplotlib.axis_2">
    <g id="ytick_1">
     <g id="line2d_7">
      <defs>
       <path d="M 0 0 
L -3.5 0 
" id="me2012f5319" style="stroke:#000000;stroke-width:0.8;"/>
      </defs>
      <g>
       <use style="stroke:#000000;stroke-width:0.8;" x="135" xlink:href="#me2012f5319" y="282.054545"/>
      </g>
     </g>
     <g id="text_7">
      <!-- 12.5 -->
      <defs>
       <path d="M 10.6875 12.40625 
L 21 12.40625 
L 21 0 
L 10.6875 0 
z
" id="DejaVuSans-46"/>
       <path d="M 10.796875 72.90625 
L 49.515625 72.90625 
L 49.515625 64.59375 
L 19.828125 64.59375 
L 19.828125 46.734375 
Q 21.96875 47.46875 24.109375 47.828125 
Q 26.265625 48.1875 28.421875 48.1875 
Q 40.625 48.1875 47.75 41.5 
Q 54.890625 34.8125 54.890625 23.390625 
Q 54.890625 11.625 47.5625 5.09375 
Q 40.234375 -1.421875 26.90625 -1.421875 
Q 22.3125 -1.421875 17.546875 -0.640625 
Q 12.796875 0.140625 7.71875 1.703125 
L 7.71875 11.625 
Q 12.109375 9.234375 16.796875 8.0625 
Q 21.484375 6.890625 26.703125 6.890625 
Q 35.15625 6.890625 40.078125 11.328125 
Q 45.015625 15.765625 45.015625 23.390625 
Q 45.015625 31 40.078125 35.4375 
Q 35.15625 39.890625 26.703125 39.890625 
Q 22.75 39.890625 18.8125 39.015625 
Q 14.890625 38.140625 10.796875 36.28125 
z
" id="DejaVuSans-53"/>
      </defs>
      <g transform="translate(105.734375 285.853764)scale(0.1 -0.1)">
       <use xlink:href="#DejaVuSans-49"/>
       <use x="63.623047" xlink:href="#DejaVuSans-50"/>
       <use x="127.246094" xlink:href="#DejaVuSans-46"/>
       <use x="159.033203" xlink:href="#DejaVuSans-53"/>
      </g>
     </g>
    </g>
    <g id="ytick_2">
     <g id="line2d_8">
      <g>
       <use style="stroke:#000000;stroke-width:0.8;" x="135" xlink:href="#me2012f5319" y="247.736364"/>
      </g>
     </g>
     <g id="text_8">
      <!-- 15.0 -->
      <g transform="translate(105.734375 251.535582)scale(0.1 -0.1)">
       <use xlink:href="#DejaVuSans-49"/>
       <use x="63.623047" xlink:href="#DejaVuSans-53"/>
       <use x="127.246094" xlink:href="#DejaVuSans-46"/>
       <use x="159.033203" xlink:href="#DejaVuSans-48"/>
      </g>
     </g>
    </g>
    <g id="ytick_3">
     <g id="line2d_9">
      <g>
       <use style="stroke:#000000;stroke-width:0.8;" x="135" xlink:href="#me2012f5319" y="213.418182"/>
      </g>
     </g>
     <g id="text_9">
      <!-- 17.5 -->
      <defs>
       <path d="M 8.203125 72.90625 
L 55.078125 72.90625 
L 55.078125 68.703125 
L 28.609375 0 
L 18.3125 0 
L 43.21875 64.59375 
L 8.203125 64.59375 
z
" id="DejaVuSans-55"/>
      </defs>
      <g transform="translate(105.734375 217.217401)scale(0.1 -0.1)">
       <use xlink:href="#DejaVuSans-49"/>
       <use x="63.623047" xlink:href="#DejaVuSans-55"/>
       <use x="127.246094" xlink:href="#DejaVuSans-46"/>
       <use x="159.033203" xlink:href="#DejaVuSans-53"/>
      </g>
     </g>
    </g>
    <g id="ytick_4">
     <g id="line2d_10">
      <g>
       <use style="stroke:#000000;stroke-width:0.8;" x="135" xlink:href="#me2012f5319" y="179.1"/>
      </g>
     </g>
     <g id="text_10">
      <!-- 20.0 -->
      <g transform="translate(105.734375 182.899219)scale(0.1 -0.1)">
       <use xlink:href="#DejaVuSans-50"/>
       <use x="63.623047" xlink:href="#DejaVuSans-48"/>
       <use x="127.246094" xlink:href="#DejaVuSans-46"/>
       <use x="159.033203" xlink:href="#DejaVuSans-48"/>
      </g>
     </g>
    </g>
    <g id="ytick_5">
     <g id="line2d_11">
      <g>
       <use style="stroke:#000000;stroke-width:0.8;" x="135" xlink:href="#me2012f5319" y="144.781818"/>
      </g>
     </g>
     <g id="text_11">
      <!-- 22.5 -->
      <g transform="translate(105.734375 148.581037)scale(0.1 -0.1)">
       <use xlink:href="#DejaVuSans-50"/>
       <use x="63.623047" xlink:href="#DejaVuSans-50"/>
       <use x="127.246094" xlink:href="#DejaVuSans-46"/>
       <use x="159.033203" xlink:href="#DejaVuSans-53"/>
      </g>
     </g>
    </g>
    <g id="ytick_6">
     <g id="line2d_12">
      <g>
       <use style="stroke:#000000;stroke-width:0.8;" x="135" xlink:href="#me2012f5319" y="110.463636"/>
      </g>
     </g>
     <g id="text_12">
      <!-- 25.0 -->
      <g transform="translate(105.734375 114.262855)scale(0.1 -0.1)">
       <use xlink:href="#DejaVuSans-50"/>
       <use x="63.623047" xlink:href="#DejaVuSans-53"/>
       <use x="127.246094" xlink:href="#DejaVuSans-46"/>
       <use x="159.033203" xlink:href="#DejaVuSans-48"/>
      </g>
     </g>
    </g>
    <g id="ytick_7">
     <g id="line2d_13">
      <g>
       <use style="stroke:#000000;stroke-width:0.8;" x="135" xlink:href="#me2012f5319" y="76.145455"/>
      </g>
     </g>
     <g id="text_13">
      <!-- 27.5 -->
      <g transform="translate(105.734375 79.944673)scale(0.1 -0.1)">
       <use xlink:href="#DejaVuSans-50"/>
       <use x="63.623047" xlink:href="#DejaVuSans-55"/>
       <use x="127.246094" xlink:href="#DejaVuSans-46"/>
       <use x="159.033203" xlink:href="#DejaVuSans-53"/>
      </g>
     </g>
    </g>
   </g>
   <g id="line2d_14">
    <path clip-path="url(#p038b80f09c)" d="M 173.045455 234.009091 
L 173.807889 234.009091 
L 174.570322 220.281818 
L 175.332756 247.736364 
L 176.09519 247.736364 
L 176.857624 220.281818 
L 177.620058 220.281818 
L 178.382492 247.736364 
L 179.144926 261.463636 
L 181.432228 179.1 
L 182.194662 179.1 
L 182.957096 220.281818 
L 183.71953 220.281818 
L 185.244398 192.827273 
L 186.006832 151.645455 
L 186.769266 192.827273 
L 187.5317 206.554545 
L 188.294134 206.554545 
L 189.056568 192.827273 
L 189.819002 151.645455 
L 190.581436 165.372727 
L 191.34387 96.736364 
L 192.106304 151.645455 
L 192.868737 234.009091 
L 193.631171 179.1 
L 194.393605 234.009091 
L 195.156039 179.1 
L 195.918473 179.1 
L 196.680907 165.372727 
L 197.443341 165.372727 
L 198.205775 234.009091 
L 199.730643 179.1 
L 200.493077 165.372727 
L 201.255511 124.190909 
L 202.017945 165.372727 
L 202.780379 192.827273 
L 203.542813 124.190909 
L 204.305247 192.827273 
L 205.067681 151.645455 
L 205.830115 179.1 
L 206.592549 151.645455 
L 207.354983 206.554545 
L 208.117417 192.827273 
L 208.879851 234.009091 
L 209.642285 151.645455 
L 210.404719 179.1 
L 211.167152 234.009091 
L 211.929586 206.554545 
L 212.69202 206.554545 
L 213.454454 192.827273 
L 214.216888 261.463636 
L 214.979322 247.736364 
L 215.741756 275.190909 
L 216.50419 275.190909 
L 217.266624 179.1 
L 218.029058 275.190909 
L 218.791492 206.554545 
L 219.553926 275.190909 
L 220.31636 192.827273 
L 221.078794 220.281818 
L 221.841228 234.009091 
L 222.603662 234.009091 
L 223.366096 192.827273 
L 224.12853 234.009091 
L 225.653398 206.554545 
L 226.415832 234.009091 
L 227.178266 220.281818 
L 229.465567 261.463636 
L 230.228001 179.1 
L 230.990435 234.009091 
L 231.752869 220.281818 
L 232.515303 179.1 
L 233.277737 220.281818 
L 234.802605 220.281818 
L 235.565039 234.009091 
L 236.327473 220.281818 
L 237.089907 261.463636 
L 237.852341 247.736364 
L 238.614775 206.554545 
L 239.377209 247.736364 
L 240.139643 261.463636 
L 240.902077 206.554545 
L 241.664511 234.009091 
L 242.426945 234.009091 
L 243.189379 206.554545 
L 243.951813 165.372727 
L 244.714247 206.554545 
L 245.476681 179.1 
L 246.239115 206.554545 
L 247.001549 220.281818 
L 247.763983 179.1 
L 248.526416 192.827273 
L 249.28885 179.1 
L 250.051284 206.554545 
L 250.813718 206.554545 
L 252.338586 179.1 
L 253.10102 220.281818 
L 253.863454 192.827273 
L 254.625888 192.827273 
L 256.150756 247.736364 
L 256.91319 220.281818 
L 257.675624 69.281818 
L 258.438058 110.463636 
L 259.200492 192.827273 
L 259.962926 179.1 
L 260.72536 206.554545 
L 261.487794 179.1 
L 262.250228 192.827273 
L 263.012662 234.009091 
L 263.775096 179.1 
L 264.53753 234.009091 
L 265.299964 234.009091 
L 266.062398 206.554545 
L 266.824831 220.281818 
L 267.587265 206.554545 
L 268.349699 151.645455 
L 269.112133 206.554545 
L 269.874567 220.281818 
L 271.399435 192.827273 
L 272.161869 192.827273 
L 273.686737 220.281818 
L 274.449171 220.281818 
L 275.211605 124.190909 
L 275.974039 220.281818 
L 276.736473 179.1 
L 277.498907 192.827273 
L 278.261341 220.281818 
L 279.023775 192.827273 
L 279.786209 206.554545 
L 280.548643 165.372727 
L 281.311077 192.827273 
L 282.835945 220.281818 
L 283.598379 206.554545 
L 284.360813 179.1 
L 285.123246 206.554545 
L 285.88568 220.281818 
L 287.410548 192.827273 
L 288.172982 192.827273 
L 288.935416 234.009091 
L 289.69785 206.554545 
L 290.460284 220.281818 
L 291.222718 247.736364 
L 291.985152 234.009091 
L 292.747586 206.554545 
L 293.51002 234.009091 
L 294.272454 220.281818 
L 295.034888 192.827273 
L 295.797322 220.281818 
L 296.559756 192.827273 
L 298.084624 220.281818 
L 298.847058 137.918182 
L 299.609492 206.554545 
L 300.371926 179.1 
L 301.13436 192.827273 
L 301.896794 247.736364 
L 302.659228 247.736364 
L 303.421662 234.009091 
L 304.184095 261.463636 
L 304.946529 261.463636 
L 305.708963 247.736364 
L 306.471397 247.736364 
L 307.233831 206.554545 
L 307.996265 206.554545 
L 308.758699 192.827273 
L 309.521133 206.554545 
L 310.283567 192.827273 
L 311.046001 151.645455 
L 311.808435 192.827273 
L 312.570869 137.918182 
L 313.333303 192.827273 
L 314.095737 165.372727 
L 314.858171 192.827273 
L 315.620605 206.554545 
L 316.383039 206.554545 
L 317.145473 151.645455 
L 317.907907 192.827273 
L 318.670341 220.281818 
L 319.432775 179.1 
L 320.195209 179.1 
L 320.957643 192.827273 
L 321.720077 110.463636 
L 322.48251 179.1 
L 323.244944 179.1 
L 324.007378 110.463636 
L 324.769812 206.554545 
L 325.532246 234.009091 
L 326.29468 192.827273 
L 327.057114 192.827273 
L 327.819548 234.009091 
L 328.581982 206.554545 
L 329.344416 220.281818 
L 330.869284 192.827273 
L 331.631718 247.736364 
L 332.394152 220.281818 
L 333.156586 165.372727 
L 333.91902 179.1 
L 334.681454 220.281818 
L 335.443888 206.554545 
L 336.206322 206.554545 
L 336.968756 220.281818 
L 337.73119 206.554545 
L 338.493624 234.009091 
L 339.256058 192.827273 
L 340.018492 192.827273 
L 340.780925 234.009091 
L 341.543359 151.645455 
L 342.305793 165.372727 
L 343.068227 192.827273 
L 343.830661 192.827273 
L 344.593095 234.009091 
L 345.355529 137.918182 
L 346.117963 165.372727 
L 347.642831 192.827273 
L 348.405265 234.009091 
L 349.167699 192.827273 
L 349.930133 234.009091 
L 350.692567 165.372727 
L 351.455001 137.918182 
L 352.217435 192.827273 
L 352.979869 179.1 
L 354.504737 179.1 
L 355.267171 206.554545 
L 356.029605 165.372727 
L 356.792039 206.554545 
L 358.316907 179.1 
L 359.07934 234.009091 
L 359.841774 192.827273 
L 360.604208 206.554545 
L 361.366642 165.372727 
L 362.129076 165.372727 
L 362.89151 206.554545 
L 364.416378 179.1 
L 365.941246 206.554545 
L 366.70368 192.827273 
L 367.466114 220.281818 
L 368.228548 151.645455 
L 368.990982 220.281818 
L 369.753416 179.1 
L 370.51585 179.1 
L 371.278284 151.645455 
L 372.040718 179.1 
L 372.803152 220.281818 
L 375.090454 179.1 
L 375.852888 247.736364 
L 376.615322 179.1 
L 377.377756 192.827273 
L 378.140189 192.827273 
L 378.902623 206.554545 
L 379.665057 206.554545 
L 380.427491 192.827273 
L 381.189925 206.554545 
L 381.952359 192.827273 
L 382.714793 206.554545 
L 383.477227 206.554545 
L 384.239661 192.827273 
L 385.002095 247.736364 
L 385.764529 247.736364 
L 386.526963 206.554545 
L 387.289397 206.554545 
L 388.051831 247.736364 
L 388.814265 247.736364 
L 389.576699 192.827273 
L 390.339133 206.554545 
L 391.101567 192.827273 
L 391.864001 220.281818 
L 392.626435 220.281818 
L 393.388869 192.827273 
L 394.151303 220.281818 
L 394.913737 234.009091 
L 395.676171 234.009091 
L 396.438604 179.1 
L 397.201038 220.281818 
L 397.963472 192.827273 
L 398.725906 247.736364 
L 399.48834 192.827273 
L 400.250774 206.554545 
L 401.013208 247.736364 
L 402.538076 302.645455 
L 403.30051 261.463636 
L 404.062944 247.736364 
L 404.825378 261.463636 
L 405.587812 302.645455 
L 406.350246 275.190909 
L 407.11268 261.463636 
L 407.875114 261.463636 
L 408.637548 220.281818 
L 409.399982 220.281818 
L 410.162416 261.463636 
L 410.92485 220.281818 
L 411.687284 206.554545 
L 412.449718 220.281818 
L 413.212152 261.463636 
L 413.974586 234.009091 
L 414.737019 247.736364 
L 415.499453 151.645455 
L 416.261887 192.827273 
L 417.786755 220.281818 
L 418.549189 220.281818 
L 419.311623 165.372727 
L 420.074057 234.009091 
L 420.836491 151.645455 
L 421.598925 247.736364 
L 422.361359 234.009091 
L 423.123793 261.463636 
L 424.648661 206.554545 
L 425.411095 220.281818 
L 426.935963 165.372727 
L 427.698397 220.281818 
L 428.460831 206.554545 
L 429.223265 234.009091 
L 429.985699 234.009091 
L 430.748133 206.554545 
L 431.510567 192.827273 
L 432.273001 192.827273 
L 433.035435 206.554545 
L 434.560302 206.554545 
L 435.322736 192.827273 
L 436.08517 192.827273 
L 436.847604 151.645455 
L 437.610038 192.827273 
L 438.372472 192.827273 
L 439.134906 179.1 
L 439.89734 192.827273 
L 440.659774 151.645455 
L 441.422208 165.372727 
L 442.184642 234.009091 
L 442.947076 192.827273 
L 443.70951 192.827273 
L 444.471944 137.918182 
L 445.234378 192.827273 
L 445.996812 206.554545 
L 446.759246 179.1 
L 448.284114 151.645455 
L 449.046548 165.372727 
L 449.808982 206.554545 
L 451.33385 151.645455 
L 452.096283 234.009091 
L 452.858717 192.827273 
L 453.621151 192.827273 
L 454.383585 137.918182 
L 455.146019 151.645455 
L 455.908453 234.009091 
L 456.670887 234.009091 
L 457.433321 179.1 
L 458.195755 261.463636 
L 458.958189 247.736364 
L 459.720623 275.190909 
L 460.483057 220.281818 
L 461.245491 192.827273 
L 462.007925 206.554545 
L 462.770359 192.827273 
L 463.532793 275.190909 
L 464.295227 206.554545 
L 465.057661 220.281818 
L 465.820095 179.1 
L 466.582529 206.554545 
L 467.344963 206.554545 
L 468.107397 234.009091 
L 468.869831 192.827273 
L 470.394698 275.190909 
L 471.157132 234.009091 
L 471.919566 275.190909 
L 472.682 247.736364 
L 473.444434 261.463636 
L 474.206868 234.009091 
L 475.731736 206.554545 
L 476.49417 220.281818 
L 477.256604 179.1 
L 478.019038 220.281818 
L 478.781472 220.281818 
L 479.543906 179.1 
L 480.30634 234.009091 
L 481.068774 261.463636 
L 481.831208 275.190909 
L 482.593642 275.190909 
L 483.356076 261.463636 
L 484.11851 234.009091 
L 484.880944 234.009091 
L 485.643378 179.1 
L 486.405812 234.009091 
L 487.168246 220.281818 
L 487.93068 220.281818 
L 488.693113 206.554545 
L 489.455547 206.554545 
L 490.217981 220.281818 
L 490.980415 179.1 
L 491.742849 179.1 
L 492.505283 151.645455 
L 493.267717 192.827273 
L 494.030151 206.554545 
L 494.792585 179.1 
L 495.555019 206.554545 
L 496.317453 192.827273 
L 497.079887 151.645455 
L 497.842321 179.1 
L 498.604755 179.1 
L 499.367189 206.554545 
L 500.129623 247.736364 
L 500.892057 192.827273 
L 501.654491 220.281818 
L 502.416925 179.1 
L 503.179359 192.827273 
L 503.941793 137.918182 
L 504.704227 165.372727 
L 505.466661 179.1 
L 506.991529 234.009091 
L 507.753962 192.827273 
L 508.516396 179.1 
L 509.27883 206.554545 
L 510.041264 288.918182 
L 510.803698 206.554545 
L 511.566132 206.554545 
L 512.328566 192.827273 
L 513.091 288.918182 
L 513.853434 220.281818 
L 514.615868 192.827273 
L 515.378302 124.190909 
L 516.140736 192.827273 
L 516.90317 220.281818 
L 517.665604 206.554545 
L 518.428038 206.554545 
L 519.190472 192.827273 
L 520.71534 192.827273 
L 521.477774 220.281818 
L 522.240208 192.827273 
L 523.002642 151.645455 
L 523.765076 192.827273 
L 524.52751 179.1 
L 525.289944 220.281818 
L 526.814811 192.827273 
L 527.577245 137.918182 
L 528.339679 179.1 
L 529.102113 206.554545 
L 529.864547 220.281818 
L 530.626981 165.372727 
L 531.389415 220.281818 
L 532.151849 220.281818 
L 532.914283 234.009091 
L 533.676717 206.554545 
L 534.439151 220.281818 
L 535.201585 247.736364 
L 535.964019 220.281818 
L 536.726453 234.009091 
L 537.488887 179.1 
L 538.251321 234.009091 
L 539.013755 179.1 
L 539.776189 206.554545 
L 540.538623 192.827273 
L 541.301057 206.554545 
L 542.063491 206.554545 
L 542.825925 234.009091 
L 543.588359 234.009091 
L 545.113226 206.554545 
L 545.87566 247.736364 
L 546.638094 247.736364 
L 547.400528 261.463636 
L 548.162962 206.554545 
L 548.925396 261.463636 
L 549.68783 247.736364 
L 550.450264 206.554545 
L 551.212698 247.736364 
L 551.975132 192.827273 
L 552.737566 192.827273 
L 553.5 220.281818 
L 554.262434 192.827273 
L 555.024868 192.827273 
L 555.787302 220.281818 
L 556.549736 179.1 
L 557.31217 179.1 
L 558.074604 206.554545 
L 558.837038 206.554545 
L 559.599472 165.372727 
L 560.361906 179.1 
L 561.12434 179.1 
L 561.886774 206.554545 
L 562.649208 179.1 
L 563.411641 220.281818 
L 564.174075 192.827273 
L 564.936509 179.1 
L 565.698943 192.827273 
L 566.461377 151.645455 
L 567.223811 192.827273 
L 567.986245 165.372727 
L 568.748679 179.1 
L 569.511113 206.554545 
L 570.273547 165.372727 
L 571.035981 206.554545 
L 571.798415 192.827273 
L 572.560849 220.281818 
L 573.323283 206.554545 
L 574.085717 247.736364 
L 574.848151 206.554545 
L 575.610585 220.281818 
L 576.373019 206.554545 
L 577.135453 206.554545 
L 577.897887 179.1 
L 578.660321 220.281818 
L 579.422755 206.554545 
L 580.185189 206.554545 
L 580.947623 220.281818 
L 581.710056 192.827273 
L 582.47249 234.009091 
L 583.234924 192.827273 
L 583.997358 192.827273 
L 584.759792 234.009091 
L 585.522226 192.827273 
L 586.28466 165.372727 
L 587.047094 192.827273 
L 587.809528 234.009091 
L 588.571962 192.827273 
L 589.334396 165.372727 
L 590.09683 206.554545 
L 590.859264 206.554545 
L 592.384132 179.1 
L 593.146566 179.1 
L 593.909 151.645455 
L 594.671434 179.1 
L 595.433868 165.372727 
L 596.196302 192.827273 
L 596.958736 179.1 
L 597.72117 206.554545 
L 598.483604 165.372727 
L 599.246038 179.1 
L 600.008471 179.1 
L 600.770905 206.554545 
L 601.533339 192.827273 
L 602.295773 151.645455 
L 603.058207 234.009091 
L 603.820641 192.827273 
L 604.583075 165.372727 
L 605.345509 151.645455 
L 606.107943 179.1 
L 606.870377 192.827273 
L 607.632811 165.372727 
L 608.395245 192.827273 
L 609.157679 206.554545 
L 609.920113 179.1 
L 610.682547 220.281818 
L 611.444981 179.1 
L 612.207415 220.281818 
L 612.969849 206.554545 
L 613.732283 151.645455 
L 614.494717 151.645455 
L 616.019585 206.554545 
L 616.782019 220.281818 
L 617.544453 192.827273 
L 618.306887 206.554545 
L 619.06932 247.736364 
L 619.831754 206.554545 
L 620.594188 206.554545 
L 621.356622 179.1 
L 622.119056 206.554545 
L 622.88149 124.190909 
L 623.643924 206.554545 
L 624.406358 206.554545 
L 625.168792 192.827273 
L 625.931226 165.372727 
L 626.69366 192.827273 
L 627.456094 192.827273 
L 628.218528 137.918182 
L 628.980962 206.554545 
L 629.743396 192.827273 
L 630.50583 206.554545 
L 631.268264 179.1 
L 632.030698 206.554545 
L 632.793132 206.554545 
L 633.555566 220.281818 
L 634.318 220.281818 
L 635.080434 206.554545 
L 635.842868 234.009091 
L 636.605302 206.554545 
L 637.367735 234.009091 
L 638.130169 192.827273 
L 638.892603 234.009091 
L 639.655037 234.009091 
L 640.417471 247.736364 
L 641.179905 247.736364 
L 641.942339 192.827273 
L 642.704773 192.827273 
L 643.467207 220.281818 
L 644.229641 220.281818 
L 644.992075 247.736364 
L 646.516943 275.190909 
L 647.279377 302.645455 
L 648.041811 247.736364 
L 648.804245 247.736364 
L 649.566679 261.463636 
L 650.329113 302.645455 
L 651.091547 275.190909 
L 651.853981 261.463636 
L 652.616415 261.463636 
L 653.378849 206.554545 
L 654.141283 261.463636 
L 654.903717 220.281818 
L 655.66615 206.554545 
L 656.428584 220.281818 
L 657.191018 261.463636 
L 657.953452 234.009091 
L 658.715886 247.736364 
L 659.47832 247.736364 
L 660.240754 220.281818 
L 661.003188 247.736364 
L 661.765622 220.281818 
L 662.528056 206.554545 
L 663.29049 220.281818 
L 664.052924 220.281818 
L 664.815358 206.554545 
L 665.577792 247.736364 
L 666.340226 234.009091 
L 667.10266 261.463636 
L 667.865094 220.281818 
L 668.627528 234.009091 
L 669.389962 220.281818 
L 670.152396 179.1 
L 670.91483 151.645455 
L 671.677264 220.281818 
L 673.964565 179.1 
L 674.726999 206.554545 
L 675.489433 220.281818 
L 676.251867 220.281818 
L 677.014301 192.827273 
L 677.776735 192.827273 
L 678.539169 179.1 
L 679.301603 206.554545 
L 680.064037 206.554545 
L 680.826471 192.827273 
L 681.588905 192.827273 
L 682.351339 206.554545 
L 683.113773 96.736364 
L 683.876207 179.1 
L 684.638641 192.827273 
L 685.401075 110.463636 
L 686.163509 179.1 
L 686.925943 234.009091 
L 687.688377 234.009091 
L 688.450811 179.1 
L 689.213245 234.009091 
L 689.975679 179.1 
L 690.738113 165.372727 
L 691.500547 206.554545 
L 692.262981 192.827273 
L 693.025414 192.827273 
L 693.787848 206.554545 
L 694.550282 151.645455 
L 695.312716 165.372727 
L 696.07515 234.009091 
L 696.837584 192.827273 
L 697.600018 192.827273 
L 698.362452 179.1 
L 699.88732 179.1 
L 700.649754 192.827273 
L 701.412188 220.281818 
L 702.174622 234.009091 
L 702.937056 261.463636 
L 703.69949 247.736364 
L 704.461924 275.190909 
L 705.224358 206.554545 
L 705.986792 192.827273 
L 706.749226 220.281818 
L 707.51166 206.554545 
L 708.274094 275.190909 
L 709.036528 220.281818 
L 709.798962 179.1 
L 711.323829 234.009091 
L 712.086263 234.009091 
L 712.848697 220.281818 
L 713.611131 275.190909 
L 714.373565 179.1 
L 715.135999 275.190909 
L 715.898433 234.009091 
L 717.423301 261.463636 
L 718.185735 220.281818 
L 718.948169 206.554545 
L 719.710603 220.281818 
L 720.473037 96.736364 
L 721.235471 220.281818 
L 721.997905 192.827273 
L 722.760339 220.281818 
L 723.522773 220.281818 
L 724.285207 234.009091 
L 725.047641 261.463636 
L 725.810075 275.190909 
L 726.572509 275.190909 
L 727.334943 261.463636 
L 728.097377 220.281818 
L 728.859811 234.009091 
L 729.622244 234.009091 
L 730.384678 220.281818 
L 731.147112 220.281818 
L 731.909546 206.554545 
L 732.67198 206.554545 
L 733.434414 220.281818 
L 734.959282 192.827273 
L 735.721716 192.827273 
L 736.48415 137.918182 
L 738.009018 247.736364 
L 738.771452 247.736364 
L 739.533886 206.554545 
L 740.29632 179.1 
L 741.821188 151.645455 
L 743.346056 206.554545 
L 744.10849 247.736364 
L 744.870924 206.554545 
L 745.633358 220.281818 
L 746.395792 192.827273 
L 747.158226 206.554545 
L 747.92066 179.1 
L 748.683093 206.554545 
L 749.445527 165.372727 
L 750.207961 206.554545 
L 750.970395 234.009091 
L 751.732829 151.645455 
L 752.495263 179.1 
L 753.257697 220.281818 
L 754.020131 288.918182 
L 754.782565 206.554545 
L 755.544999 206.554545 
L 756.307433 288.918182 
L 757.069867 206.554545 
L 757.832301 220.281818 
L 758.594735 165.372727 
L 760.119603 220.281818 
L 760.882037 206.554545 
L 761.644471 206.554545 
L 763.169339 179.1 
L 763.931773 151.645455 
L 764.694207 151.645455 
L 765.456641 165.372727 
L 766.219075 192.827273 
L 766.981508 206.554545 
L 767.743942 192.827273 
L 768.506376 96.736364 
L 769.26881 179.1 
L 770.031244 288.918182 
L 770.793678 192.827273 
L 771.556112 192.827273 
L 772.318546 288.918182 
L 773.08098 192.827273 
L 773.843414 179.1 
L 774.605848 192.827273 
L 775.368282 192.827273 
L 776.130716 220.281818 
L 776.89315 234.009091 
L 778.418018 206.554545 
L 779.180452 247.736364 
L 779.942886 220.281818 
L 780.70532 234.009091 
L 781.467754 206.554545 
L 782.230188 206.554545 
L 782.992622 234.009091 
L 783.755056 179.1 
L 784.51749 206.554545 
L 785.279923 220.281818 
L 786.042357 220.281818 
L 786.804791 206.554545 
L 787.567225 179.1 
L 788.329659 206.554545 
L 789.092093 220.281818 
L 789.854527 192.827273 
L 790.616961 220.281818 
L 791.379395 261.463636 
L 792.141829 220.281818 
L 792.904263 261.463636 
L 794.429131 206.554545 
L 795.191565 192.827273 
L 795.953999 247.736364 
L 796.716433 247.736364 
L 797.478867 220.281818 
L 798.241301 179.1 
L 799.003735 220.281818 
L 799.766169 206.554545 
L 800.528603 247.736364 
L 801.291037 247.736364 
L 802.053471 192.827273 
L 802.815905 179.1 
L 804.340772 179.1 
L 805.103206 206.554545 
L 805.86564 220.281818 
L 806.628074 165.372727 
L 807.390508 192.827273 
L 808.915376 192.827273 
L 809.67781 220.281818 
L 810.440244 192.827273 
L 811.202678 220.281818 
L 811.965112 220.281818 
L 812.727546 192.827273 
L 813.48998 137.918182 
L 814.252414 192.827273 
L 815.014848 165.372727 
L 815.777282 165.372727 
L 817.30215 247.736364 
L 818.064584 206.554545 
L 818.827018 220.281818 
L 819.589452 206.554545 
L 820.351886 179.1 
L 821.11432 206.554545 
L 821.876754 137.918182 
L 822.639187 192.827273 
L 823.401621 220.281818 
L 824.164055 220.281818 
L 824.926489 206.554545 
L 825.688923 234.009091 
L 826.451357 165.372727 
L 827.213791 165.372727 
L 827.976225 179.1 
L 828.738659 234.009091 
L 829.501093 124.190909 
L 830.263527 234.009091 
L 831.025961 192.827273 
L 831.788395 206.554545 
L 832.550829 192.827273 
L 833.313263 192.827273 
L 834.075697 179.1 
L 835.600565 179.1 
L 836.362999 165.372727 
L 837.125433 206.554545 
L 837.887867 234.009091 
L 838.650301 151.645455 
L 839.412735 234.009091 
L 840.175169 206.554545 
L 841.700036 179.1 
L 842.46247 151.645455 
L 843.224904 192.827273 
L 843.987338 206.554545 
L 844.749772 179.1 
L 845.512206 165.372727 
L 846.27464 192.827273 
L 847.037074 234.009091 
L 847.799508 179.1 
L 848.561942 151.645455 
L 849.324376 151.645455 
L 850.08681 96.736364 
L 850.849244 179.1 
L 851.611678 165.372727 
L 852.374112 206.554545 
L 853.136546 179.1 
L 853.89898 179.1 
L 854.661414 192.827273 
L 855.423848 110.463636 
L 856.186282 206.554545 
L 857.71115 179.1 
L 858.473584 179.1 
L 859.236017 137.918182 
L 859.998451 206.554545 
L 860.760885 220.281818 
L 861.523319 165.372727 
L 863.048187 247.736364 
L 863.810621 165.372727 
L 864.573055 179.1 
L 865.335489 206.554545 
L 866.097923 179.1 
L 866.860357 206.554545 
L 867.622791 206.554545 
L 868.385225 151.645455 
L 869.147659 179.1 
L 869.910093 192.827273 
L 870.672527 192.827273 
L 871.434961 206.554545 
L 872.197395 192.827273 
L 872.959829 206.554545 
L 873.722263 206.554545 
L 874.484697 192.827273 
L 875.247131 206.554545 
L 876.009565 179.1 
L 876.771999 206.554545 
L 877.534433 206.554545 
L 878.296866 220.281818 
L 879.821734 220.281818 
L 880.584168 206.554545 
L 881.346602 220.281818 
L 882.109036 247.736364 
L 882.87147 247.736364 
L 883.633904 179.1 
L 884.396338 247.736364 
L 885.158772 247.736364 
L 885.921206 206.554545 
L 886.68364 247.736364 
L 887.446074 247.736364 
L 888.208508 234.009091 
L 888.970942 247.736364 
L 889.733376 247.736364 
L 891.258244 302.645455 
L 892.020678 261.463636 
L 892.783112 234.009091 
L 893.545546 261.463636 
L 894.30798 302.645455 
L 895.070414 275.190909 
L 895.832848 261.463636 
L 896.595281 206.554545 
L 897.357715 192.827273 
L 898.120149 220.281818 
L 898.882583 206.554545 
L 899.645017 206.554545 
L 900.407451 220.281818 
L 901.169885 261.463636 
L 901.932319 234.009091 
L 902.694753 192.827273 
L 903.457187 234.009091 
L 904.219621 179.1 
L 904.982055 234.009091 
L 905.744489 247.736364 
L 906.506923 206.554545 
L 907.269357 179.1 
L 908.031791 234.009091 
L 908.794225 234.009091 
L 909.556659 247.736364 
L 910.319093 234.009091 
L 911.081527 261.463636 
L 911.843961 234.009091 
L 912.606395 220.281818 
L 914.131263 220.281818 
L 914.893696 179.1 
L 915.65613 220.281818 
L 916.418564 179.1 
L 917.180998 179.1 
L 917.943432 206.554545 
L 918.705866 165.372727 
L 919.4683 206.554545 
L 920.230734 220.281818 
L 920.993168 192.827273 
L 921.755602 179.1 
L 922.518036 179.1 
L 923.28047 220.281818 
L 924.042904 179.1 
L 924.805338 179.1 
L 925.567772 192.827273 
L 926.330206 179.1 
L 927.09264 206.554545 
L 927.855074 179.1 
L 928.617508 124.190909 
L 929.379942 179.1 
L 930.142376 151.645455 
L 930.90481 179.1 
L 931.667244 151.645455 
L 933.192111 234.009091 
L 933.954545 179.1 
L 933.954545 179.1 
" style="fill:none;stroke:#1f77b4;stroke-linecap:square;stroke-width:1.5;"/>
   </g>
   <g id="line2d_15">
    <path clip-path="url(#p038b80f09c)" d="M 173.045455 220.281818 
L 173.807889 179.1 
L 174.570322 220.281818 
L 175.332756 206.554545 
L 176.09519 220.281818 
L 177.620058 220.281818 
L 178.382492 234.009091 
L 179.90736 234.009091 
L 180.669794 206.554545 
L 181.432228 165.372727 
L 182.194662 179.1 
L 182.957096 179.1 
L 183.71953 192.827273 
L 184.481964 192.827273 
L 185.244398 179.1 
L 186.006832 137.918182 
L 186.769266 192.827273 
L 187.5317 179.1 
L 189.056568 179.1 
L 189.819002 124.190909 
L 190.581436 165.372727 
L 191.34387 96.736364 
L 192.868737 179.1 
L 193.631171 165.372727 
L 194.393605 179.1 
L 195.156039 165.372727 
L 195.918473 179.1 
L 196.680907 137.918182 
L 197.443341 151.645455 
L 198.205775 192.827273 
L 198.968209 192.827273 
L 199.730643 151.645455 
L 200.493077 151.645455 
L 201.255511 110.463636 
L 202.017945 165.372727 
L 202.780379 179.1 
L 203.542813 124.190909 
L 204.305247 179.1 
L 205.067681 137.918182 
L 205.830115 165.372727 
L 206.592549 137.918182 
L 207.354983 192.827273 
L 208.117417 192.827273 
L 209.642285 137.918182 
L 210.404719 179.1 
L 211.167152 179.1 
L 212.69202 206.554545 
L 213.454454 192.827273 
L 214.216888 247.736364 
L 214.979322 247.736364 
L 215.741756 206.554545 
L 216.50419 220.281818 
L 217.266624 179.1 
L 218.029058 220.281818 
L 218.791492 179.1 
L 219.553926 206.554545 
L 220.31636 192.827273 
L 221.078794 206.554545 
L 222.603662 206.554545 
L 223.366096 179.1 
L 224.12853 220.281818 
L 224.890964 220.281818 
L 225.653398 192.827273 
L 226.415832 220.281818 
L 227.178266 220.281818 
L 228.703134 247.736364 
L 229.465567 234.009091 
L 230.228001 165.372727 
L 230.990435 206.554545 
L 231.752869 206.554545 
L 232.515303 179.1 
L 234.040171 179.1 
L 237.089907 234.009091 
L 237.852341 234.009091 
L 238.614775 192.827273 
L 239.377209 247.736364 
L 240.139643 234.009091 
L 240.902077 192.827273 
L 241.664511 206.554545 
L 242.426945 192.827273 
L 243.189379 206.554545 
L 243.951813 151.645455 
L 244.714247 206.554545 
L 245.476681 165.372727 
L 246.239115 192.827273 
L 247.001549 192.827273 
L 248.526416 165.372727 
L 249.28885 165.372727 
L 250.051284 179.1 
L 250.813718 151.645455 
L 251.576152 192.827273 
L 253.10102 165.372727 
L 253.863454 179.1 
L 254.625888 179.1 
L 255.388322 206.554545 
L 256.150756 220.281818 
L 256.91319 192.827273 
L 257.675624 55.554545 
L 258.438058 96.736364 
L 259.200492 151.645455 
L 259.962926 179.1 
L 260.72536 179.1 
L 261.487794 165.372727 
L 263.012662 192.827273 
L 263.775096 179.1 
L 264.53753 192.827273 
L 265.299964 192.827273 
L 266.062398 206.554545 
L 266.824831 206.554545 
L 268.349699 151.645455 
L 269.112133 192.827273 
L 269.874567 206.554545 
L 271.399435 179.1 
L 272.161869 179.1 
L 272.924303 192.827273 
L 273.686737 179.1 
L 275.211605 124.190909 
L 275.974039 179.1 
L 276.736473 179.1 
L 277.498907 151.645455 
L 278.261341 192.827273 
L 279.023775 192.827273 
L 281.311077 151.645455 
L 282.073511 192.827273 
L 282.835945 206.554545 
L 284.360813 179.1 
L 285.88568 206.554545 
L 286.648114 192.827273 
L 287.410548 151.645455 
L 288.172982 179.1 
L 288.935416 192.827273 
L 289.69785 192.827273 
L 290.460284 220.281818 
L 291.222718 220.281818 
L 291.985152 206.554545 
L 294.272454 206.554545 
L 295.034888 165.372727 
L 295.797322 206.554545 
L 296.559756 192.827273 
L 297.32219 206.554545 
L 298.084624 206.554545 
L 298.847058 137.918182 
L 299.609492 192.827273 
L 301.13436 165.372727 
L 301.896794 192.827273 
L 302.659228 206.554545 
L 303.421662 234.009091 
L 304.184095 220.281818 
L 304.946529 234.009091 
L 305.708963 234.009091 
L 306.471397 192.827273 
L 307.233831 206.554545 
L 307.996265 192.827273 
L 310.283567 192.827273 
L 311.046001 151.645455 
L 311.808435 192.827273 
L 312.570869 137.918182 
L 313.333303 179.1 
L 314.095737 151.645455 
L 314.858171 192.827273 
L 315.620605 137.918182 
L 316.383039 165.372727 
L 317.145473 151.645455 
L 317.907907 192.827273 
L 318.670341 192.827273 
L 319.432775 151.645455 
L 320.195209 165.372727 
L 320.957643 192.827273 
L 321.720077 96.736364 
L 322.48251 165.372727 
L 323.244944 179.1 
L 324.007378 96.736364 
L 324.769812 151.645455 
L 325.532246 192.827273 
L 328.581982 192.827273 
L 329.344416 206.554545 
L 330.10685 192.827273 
L 330.869284 192.827273 
L 331.631718 206.554545 
L 332.394152 206.554545 
L 333.156586 151.645455 
L 333.91902 165.372727 
L 334.681454 192.827273 
L 335.443888 206.554545 
L 336.206322 165.372727 
L 336.968756 206.554545 
L 337.73119 192.827273 
L 339.256058 192.827273 
L 340.018492 179.1 
L 340.780925 192.827273 
L 341.543359 83.009091 
L 342.305793 151.645455 
L 343.068227 165.372727 
L 343.830661 192.827273 
L 344.593095 192.827273 
L 345.355529 137.918182 
L 346.117963 165.372727 
L 346.880397 151.645455 
L 347.642831 192.827273 
L 348.405265 192.827273 
L 349.167699 165.372727 
L 349.930133 192.827273 
L 351.455001 137.918182 
L 352.217435 179.1 
L 353.742303 151.645455 
L 354.504737 151.645455 
L 355.267171 192.827273 
L 356.029605 151.645455 
L 356.792039 192.827273 
L 358.316907 165.372727 
L 359.841774 192.827273 
L 360.604208 179.1 
L 361.366642 124.190909 
L 362.89151 179.1 
L 363.653944 179.1 
L 364.416378 165.372727 
L 365.178812 179.1 
L 365.941246 179.1 
L 366.70368 192.827273 
L 367.466114 179.1 
L 368.228548 137.918182 
L 368.990982 179.1 
L 369.753416 165.372727 
L 370.51585 165.372727 
L 371.278284 151.645455 
L 372.040718 151.645455 
L 372.803152 192.827273 
L 373.565586 192.827273 
L 374.32802 151.645455 
L 375.090454 179.1 
L 375.852888 192.827273 
L 376.615322 165.372727 
L 377.377756 192.827273 
L 378.140189 192.827273 
L 378.902623 179.1 
L 379.665057 192.827273 
L 380.427491 179.1 
L 381.189925 206.554545 
L 382.714793 179.1 
L 383.477227 206.554545 
L 384.239661 179.1 
L 385.002095 206.554545 
L 385.764529 179.1 
L 386.526963 206.554545 
L 387.289397 206.554545 
L 388.051831 192.827273 
L 388.814265 206.554545 
L 389.576699 179.1 
L 390.339133 206.554545 
L 391.101567 192.827273 
L 391.864001 206.554545 
L 392.626435 192.827273 
L 393.388869 192.827273 
L 394.151303 220.281818 
L 394.913737 192.827273 
L 395.676171 220.281818 
L 396.438604 165.372727 
L 397.201038 220.281818 
L 397.963472 192.827273 
L 398.725906 220.281818 
L 399.48834 192.827273 
L 400.250774 151.645455 
L 401.013208 234.009091 
L 401.775642 261.463636 
L 402.538076 275.190909 
L 403.30051 247.736364 
L 404.062944 247.736364 
L 404.825378 261.463636 
L 406.350246 261.463636 
L 407.11268 247.736364 
L 407.875114 220.281818 
L 410.162416 220.281818 
L 411.687284 192.827273 
L 412.449718 220.281818 
L 413.212152 234.009091 
L 414.737019 206.554545 
L 415.499453 124.190909 
L 416.261887 179.1 
L 417.024321 206.554545 
L 417.786755 192.827273 
L 418.549189 220.281818 
L 419.311623 151.645455 
L 420.074057 220.281818 
L 420.836491 124.190909 
L 421.598925 234.009091 
L 422.361359 234.009091 
L 423.123793 220.281818 
L 423.886227 220.281818 
L 424.648661 206.554545 
L 425.411095 165.372727 
L 426.173529 179.1 
L 426.935963 165.372727 
L 427.698397 206.554545 
L 428.460831 206.554545 
L 429.985699 179.1 
L 430.748133 206.554545 
L 431.510567 192.827273 
L 432.273001 192.827273 
L 433.035435 179.1 
L 436.08517 179.1 
L 436.847604 137.918182 
L 437.610038 179.1 
L 438.372472 165.372727 
L 439.134906 165.372727 
L 439.89734 179.1 
L 440.659774 151.645455 
L 441.422208 151.645455 
L 442.184642 192.827273 
L 442.947076 179.1 
L 443.70951 179.1 
L 444.471944 137.918182 
L 445.234378 192.827273 
L 446.759246 165.372727 
L 447.52168 165.372727 
L 448.284114 151.645455 
L 449.046548 165.372727 
L 449.808982 192.827273 
L 450.571416 179.1 
L 451.33385 137.918182 
L 452.096283 206.554545 
L 452.858717 179.1 
L 453.621151 179.1 
L 454.383585 137.918182 
L 455.146019 137.918182 
L 455.908453 192.827273 
L 456.670887 192.827273 
L 457.433321 165.372727 
L 458.195755 234.009091 
L 458.958189 247.736364 
L 459.720623 234.009091 
L 460.483057 206.554545 
L 461.245491 192.827273 
L 462.007925 206.554545 
L 462.770359 165.372727 
L 463.532793 206.554545 
L 465.057661 206.554545 
L 465.820095 165.372727 
L 468.107397 206.554545 
L 468.869831 192.827273 
L 469.632265 220.281818 
L 470.394698 234.009091 
L 471.157132 206.554545 
L 471.919566 234.009091 
L 472.682 247.736364 
L 475.731736 192.827273 
L 476.49417 206.554545 
L 478.019038 151.645455 
L 478.781472 192.827273 
L 479.543906 151.645455 
L 480.30634 234.009091 
L 481.068774 247.736364 
L 481.831208 247.736364 
L 482.593642 234.009091 
L 483.356076 247.736364 
L 484.880944 220.281818 
L 485.643378 124.190909 
L 486.405812 220.281818 
L 487.168246 179.1 
L 487.93068 192.827273 
L 488.693113 179.1 
L 489.455547 179.1 
L 490.217981 192.827273 
L 490.980415 179.1 
L 491.742849 179.1 
L 492.505283 137.918182 
L 493.267717 192.827273 
L 494.030151 192.827273 
L 494.792585 179.1 
L 495.555019 192.827273 
L 497.079887 137.918182 
L 497.842321 165.372727 
L 498.604755 179.1 
L 499.367189 206.554545 
L 500.129623 206.554545 
L 502.416925 165.372727 
L 503.179359 137.918182 
L 503.941793 137.918182 
L 504.704227 151.645455 
L 505.466661 179.1 
L 506.229095 192.827273 
L 506.991529 192.827273 
L 507.753962 165.372727 
L 508.516396 165.372727 
L 509.27883 206.554545 
L 510.041264 220.281818 
L 510.803698 206.554545 
L 511.566132 179.1 
L 513.091 206.554545 
L 513.853434 206.554545 
L 514.615868 192.827273 
L 515.378302 110.463636 
L 516.140736 192.827273 
L 516.90317 192.827273 
L 517.665604 165.372727 
L 518.428038 179.1 
L 519.190472 165.372727 
L 519.952906 137.918182 
L 521.477774 192.827273 
L 522.240208 179.1 
L 523.002642 137.918182 
L 523.765076 179.1 
L 524.52751 179.1 
L 525.289944 192.827273 
L 526.814811 192.827273 
L 527.577245 83.009091 
L 528.339679 179.1 
L 529.864547 206.554545 
L 530.626981 151.645455 
L 531.389415 179.1 
L 532.914283 206.554545 
L 534.439151 206.554545 
L 535.201585 220.281818 
L 535.964019 220.281818 
L 536.726453 206.554545 
L 537.488887 179.1 
L 538.251321 206.554545 
L 539.013755 165.372727 
L 539.776189 192.827273 
L 540.538623 179.1 
L 542.063491 206.554545 
L 544.350792 206.554545 
L 545.87566 179.1 
L 546.638094 220.281818 
L 547.400528 234.009091 
L 548.162962 206.554545 
L 548.925396 234.009091 
L 549.68783 234.009091 
L 550.450264 179.1 
L 551.212698 206.554545 
L 551.975132 179.1 
L 552.737566 179.1 
L 553.5 206.554545 
L 554.262434 192.827273 
L 555.024868 192.827273 
L 555.787302 206.554545 
L 556.549736 179.1 
L 557.31217 179.1 
L 558.837038 151.645455 
L 559.599472 165.372727 
L 560.361906 151.645455 
L 561.12434 165.372727 
L 561.886774 192.827273 
L 563.411641 165.372727 
L 564.174075 192.827273 
L 564.936509 165.372727 
L 565.698943 192.827273 
L 566.461377 137.918182 
L 567.223811 192.827273 
L 567.986245 151.645455 
L 569.511113 179.1 
L 570.273547 151.645455 
L 571.035981 179.1 
L 571.798415 179.1 
L 573.323283 206.554545 
L 574.085717 192.827273 
L 574.848151 206.554545 
L 575.610585 206.554545 
L 576.373019 179.1 
L 577.135453 192.827273 
L 577.897887 179.1 
L 578.660321 179.1 
L 579.422755 192.827273 
L 580.185189 192.827273 
L 580.947623 206.554545 
L 581.710056 192.827273 
L 582.47249 165.372727 
L 583.234924 179.1 
L 583.997358 165.372727 
L 584.759792 192.827273 
L 586.28466 165.372727 
L 587.809528 192.827273 
L 589.334396 165.372727 
L 590.859264 165.372727 
L 591.621698 192.827273 
L 592.384132 165.372727 
L 593.146566 179.1 
L 593.909 151.645455 
L 594.671434 179.1 
L 595.433868 165.372727 
L 596.196302 179.1 
L 596.958736 179.1 
L 597.72117 151.645455 
L 599.246038 151.645455 
L 600.770905 179.1 
L 602.295773 151.645455 
L 603.058207 192.827273 
L 603.820641 192.827273 
L 604.583075 151.645455 
L 606.107943 151.645455 
L 606.870377 192.827273 
L 607.632811 137.918182 
L 608.395245 192.827273 
L 609.920113 165.372727 
L 610.682547 192.827273 
L 611.444981 179.1 
L 612.207415 192.827273 
L 612.969849 192.827273 
L 613.732283 151.645455 
L 614.494717 151.645455 
L 615.257151 165.372727 
L 616.019585 192.827273 
L 616.782019 206.554545 
L 617.544453 179.1 
L 618.306887 179.1 
L 619.06932 206.554545 
L 619.831754 192.827273 
L 620.594188 165.372727 
L 621.356622 165.372727 
L 622.119056 179.1 
L 622.88149 124.190909 
L 623.643924 179.1 
L 624.406358 179.1 
L 625.168792 192.827273 
L 625.931226 165.372727 
L 626.69366 192.827273 
L 627.456094 179.1 
L 628.218528 137.918182 
L 628.980962 192.827273 
L 629.743396 165.372727 
L 630.50583 192.827273 
L 631.268264 165.372727 
L 632.030698 206.554545 
L 632.793132 192.827273 
L 633.555566 206.554545 
L 634.318 206.554545 
L 635.080434 151.645455 
L 635.842868 220.281818 
L 636.605302 192.827273 
L 637.367735 220.281818 
L 638.130169 179.1 
L 638.892603 220.281818 
L 640.417471 220.281818 
L 641.942339 192.827273 
L 642.704773 192.827273 
L 645.754509 247.736364 
L 646.516943 275.190909 
L 647.279377 261.463636 
L 648.041811 234.009091 
L 649.566679 261.463636 
L 651.091547 261.463636 
L 652.616415 206.554545 
L 653.378849 192.827273 
L 654.141283 206.554545 
L 656.428584 206.554545 
L 657.191018 234.009091 
L 657.953452 234.009091 
L 658.715886 206.554545 
L 659.47832 220.281818 
L 660.240754 206.554545 
L 661.003188 220.281818 
L 661.765622 220.281818 
L 662.528056 206.554545 
L 663.29049 179.1 
L 664.052924 220.281818 
L 664.815358 206.554545 
L 665.577792 234.009091 
L 666.340226 234.009091 
L 667.10266 206.554545 
L 667.865094 220.281818 
L 668.627528 206.554545 
L 669.389962 179.1 
L 670.152396 179.1 
L 670.91483 151.645455 
L 671.677264 206.554545 
L 672.439698 192.827273 
L 673.202132 151.645455 
L 673.964565 179.1 
L 674.726999 192.827273 
L 676.251867 192.827273 
L 677.014301 179.1 
L 678.539169 179.1 
L 679.301603 192.827273 
L 680.064037 179.1 
L 681.588905 179.1 
L 682.351339 165.372727 
L 683.113773 83.009091 
L 683.876207 179.1 
L 684.638641 151.645455 
L 685.401075 96.736364 
L 686.163509 179.1 
L 686.925943 165.372727 
L 687.688377 179.1 
L 688.450811 165.372727 
L 689.213245 192.827273 
L 690.738113 165.372727 
L 691.500547 179.1 
L 692.262981 165.372727 
L 693.025414 192.827273 
L 693.787848 192.827273 
L 694.550282 137.918182 
L 696.07515 192.827273 
L 696.837584 179.1 
L 697.600018 192.827273 
L 698.362452 165.372727 
L 699.124886 179.1 
L 699.88732 165.372727 
L 700.649754 192.827273 
L 702.174622 220.281818 
L 702.937056 247.736364 
L 703.69949 247.736364 
L 705.224358 192.827273 
L 705.986792 192.827273 
L 706.749226 206.554545 
L 709.036528 206.554545 
L 709.798962 165.372727 
L 710.561396 192.827273 
L 711.323829 192.827273 
L 712.848697 220.281818 
L 713.611131 192.827273 
L 714.373565 179.1 
L 715.898433 234.009091 
L 716.660867 247.736364 
L 717.423301 234.009091 
L 718.948169 179.1 
L 719.710603 206.554545 
L 720.473037 96.736364 
L 721.235471 206.554545 
L 722.760339 179.1 
L 724.285207 234.009091 
L 725.047641 247.736364 
L 725.810075 234.009091 
L 726.572509 247.736364 
L 727.334943 247.736364 
L 728.097377 220.281818 
L 728.859811 220.281818 
L 729.622244 206.554545 
L 731.147112 206.554545 
L 731.909546 192.827273 
L 734.196848 192.827273 
L 734.959282 179.1 
L 735.721716 179.1 
L 736.48415 124.190909 
L 737.246584 192.827273 
L 738.009018 179.1 
L 738.771452 192.827273 
L 739.533886 192.827273 
L 740.29632 179.1 
L 741.058754 151.645455 
L 741.821188 137.918182 
L 742.583622 179.1 
L 743.346056 206.554545 
L 744.10849 206.554545 
L 744.870924 192.827273 
L 746.395792 192.827273 
L 747.92066 165.372727 
L 748.683093 179.1 
L 749.445527 165.372727 
L 750.207961 192.827273 
L 750.970395 192.827273 
L 751.732829 151.645455 
L 752.495263 165.372727 
L 753.257697 206.554545 
L 754.020131 220.281818 
L 754.782565 192.827273 
L 755.544999 192.827273 
L 756.307433 206.554545 
L 757.832301 206.554545 
L 758.594735 151.645455 
L 759.357169 192.827273 
L 760.119603 192.827273 
L 761.644471 165.372727 
L 762.406905 192.827273 
L 763.169339 165.372727 
L 763.931773 151.645455 
L 765.456641 151.645455 
L 766.219075 192.827273 
L 766.981508 192.827273 
L 767.743942 165.372727 
L 768.506376 96.736364 
L 769.26881 179.1 
L 770.031244 179.1 
L 770.793678 165.372727 
L 771.556112 179.1 
L 773.08098 179.1 
L 773.843414 165.372727 
L 774.605848 179.1 
L 775.368282 179.1 
L 776.130716 220.281818 
L 776.89315 220.281818 
L 778.418018 192.827273 
L 779.180452 206.554545 
L 780.70532 206.554545 
L 781.467754 192.827273 
L 782.992622 192.827273 
L 783.755056 165.372727 
L 784.51749 192.827273 
L 786.804791 192.827273 
L 787.567225 179.1 
L 788.329659 192.827273 
L 789.854527 192.827273 
L 790.616961 220.281818 
L 791.379395 234.009091 
L 792.141829 206.554545 
L 792.904263 234.009091 
L 793.666697 234.009091 
L 794.429131 192.827273 
L 795.191565 179.1 
L 797.478867 220.281818 
L 798.241301 165.372727 
L 799.003735 206.554545 
L 799.766169 206.554545 
L 800.528603 192.827273 
L 801.291037 165.372727 
L 802.053471 179.1 
L 803.578338 151.645455 
L 804.340772 165.372727 
L 805.103206 192.827273 
L 805.86564 192.827273 
L 806.628074 151.645455 
L 807.390508 165.372727 
L 808.152942 137.918182 
L 808.915376 179.1 
L 809.67781 192.827273 
L 810.440244 165.372727 
L 811.202678 192.827273 
L 811.965112 179.1 
L 812.727546 192.827273 
L 813.48998 124.190909 
L 814.252414 165.372727 
L 815.014848 165.372727 
L 815.777282 151.645455 
L 816.539716 206.554545 
L 817.30215 206.554545 
L 818.064584 192.827273 
L 818.827018 192.827273 
L 819.589452 206.554545 
L 820.351886 151.645455 
L 821.11432 192.827273 
L 821.876754 124.190909 
L 822.639187 179.1 
L 823.401621 192.827273 
L 824.164055 192.827273 
L 824.926489 206.554545 
L 825.688923 192.827273 
L 826.451357 151.645455 
L 827.213791 151.645455 
L 827.976225 179.1 
L 828.738659 192.827273 
L 829.501093 124.190909 
L 830.263527 192.827273 
L 831.788395 192.827273 
L 832.550829 151.645455 
L 833.313263 179.1 
L 834.075697 110.463636 
L 835.600565 165.372727 
L 836.362999 151.645455 
L 837.125433 179.1 
L 837.887867 192.827273 
L 838.650301 151.645455 
L 839.412735 192.827273 
L 840.175169 192.827273 
L 840.937602 165.372727 
L 841.700036 179.1 
L 842.46247 124.190909 
L 843.224904 192.827273 
L 843.987338 179.1 
L 844.749772 151.645455 
L 845.512206 137.918182 
L 846.27464 179.1 
L 847.037074 192.827273 
L 847.799508 165.372727 
L 848.561942 151.645455 
L 849.324376 151.645455 
L 850.08681 83.009091 
L 850.849244 179.1 
L 851.611678 165.372727 
L 852.374112 192.827273 
L 853.136546 165.372727 
L 853.89898 165.372727 
L 854.661414 192.827273 
L 855.423848 83.009091 
L 856.186282 206.554545 
L 856.948716 179.1 
L 857.71115 165.372727 
L 858.473584 179.1 
L 859.236017 124.190909 
L 859.998451 206.554545 
L 860.760885 192.827273 
L 861.523319 165.372727 
L 862.285753 206.554545 
L 863.048187 206.554545 
L 863.810621 137.918182 
L 864.573055 179.1 
L 865.335489 192.827273 
L 866.097923 179.1 
L 867.622791 179.1 
L 868.385225 151.645455 
L 869.910093 179.1 
L 870.672527 179.1 
L 871.434961 206.554545 
L 872.197395 179.1 
L 872.959829 192.827273 
L 874.484697 192.827273 
L 875.247131 206.554545 
L 876.009565 165.372727 
L 876.771999 192.827273 
L 878.296866 192.827273 
L 879.0593 179.1 
L 879.821734 206.554545 
L 880.584168 192.827273 
L 881.346602 220.281818 
L 882.109036 206.554545 
L 882.87147 206.554545 
L 883.633904 179.1 
L 885.158772 206.554545 
L 885.921206 192.827273 
L 886.68364 206.554545 
L 887.446074 234.009091 
L 888.208508 220.281818 
L 888.970942 234.009091 
L 889.733376 220.281818 
L 890.49581 261.463636 
L 891.258244 275.190909 
L 892.020678 247.736364 
L 892.783112 234.009091 
L 894.30798 261.463636 
L 895.070414 261.463636 
L 895.832848 247.736364 
L 896.595281 179.1 
L 898.120149 206.554545 
L 898.882583 179.1 
L 899.645017 179.1 
L 900.407451 220.281818 
L 901.932319 220.281818 
L 902.694753 179.1 
L 903.457187 206.554545 
L 904.219621 179.1 
L 904.982055 220.281818 
L 905.744489 220.281818 
L 906.506923 192.827273 
L 907.269357 179.1 
L 908.031791 192.827273 
L 908.794225 220.281818 
L 909.556659 234.009091 
L 910.319093 220.281818 
L 911.843961 220.281818 
L 912.606395 206.554545 
L 913.368829 165.372727 
L 914.131263 179.1 
L 914.893696 124.190909 
L 915.65613 192.827273 
L 916.418564 165.372727 
L 917.180998 165.372727 
L 917.943432 192.827273 
L 918.705866 151.645455 
L 919.4683 206.554545 
L 920.230734 179.1 
L 920.993168 165.372727 
L 921.755602 179.1 
L 922.518036 179.1 
L 923.28047 192.827273 
L 924.042904 151.645455 
L 924.805338 151.645455 
L 925.567772 179.1 
L 926.330206 179.1 
L 927.09264 151.645455 
L 927.855074 179.1 
L 928.617508 110.463636 
L 929.379942 179.1 
L 930.142376 151.645455 
L 930.90481 179.1 
L 931.667244 137.918182 
L 932.429678 151.645455 
L 933.192111 179.1 
L 933.954545 179.1 
L 933.954545 179.1 
" style="fill:none;stroke:#ff7f0e;stroke-linecap:square;stroke-width:1.5;"/>
   </g>
   <g id="line2d_16">
    <path clip-path="url(#p038b80f09c)" d="M 173.045455 220.281818 
L 173.807889 206.554545 
L 174.570322 234.009091 
L 175.332756 234.009091 
L 176.09519 220.281818 
L 176.857624 220.281818 
L 177.620058 234.009091 
L 180.669794 234.009091 
L 181.432228 192.827273 
L 182.194662 179.1 
L 182.957096 206.554545 
L 183.71953 220.281818 
L 184.481964 220.281818 
L 186.006832 165.372727 
L 186.769266 206.554545 
L 187.5317 206.554545 
L 188.294134 192.827273 
L 189.056568 192.827273 
L 189.819002 137.918182 
L 190.581436 165.372727 
L 191.34387 110.463636 
L 192.868737 192.827273 
L 193.631171 192.827273 
L 194.393605 206.554545 
L 195.156039 179.1 
L 195.918473 192.827273 
L 196.680907 151.645455 
L 197.443341 165.372727 
L 198.205775 220.281818 
L 198.968209 192.827273 
L 199.730643 179.1 
L 200.493077 179.1 
L 201.255511 110.463636 
L 202.017945 165.372727 
L 202.780379 192.827273 
L 203.542813 124.190909 
L 204.305247 179.1 
L 205.067681 165.372727 
L 206.592549 165.372727 
L 207.354983 206.554545 
L 208.117417 206.554545 
L 208.879851 179.1 
L 209.642285 165.372727 
L 210.404719 206.554545 
L 211.167152 192.827273 
L 211.929586 220.281818 
L 213.454454 192.827273 
L 214.216888 247.736364 
L 214.979322 275.190909 
L 215.741756 220.281818 
L 216.50419 234.009091 
L 217.266624 192.827273 
L 218.029058 247.736364 
L 218.791492 206.554545 
L 220.31636 206.554545 
L 221.078794 234.009091 
L 221.841228 206.554545 
L 222.603662 220.281818 
L 223.366096 192.827273 
L 224.12853 234.009091 
L 224.890964 234.009091 
L 225.653398 220.281818 
L 226.415832 247.736364 
L 227.178266 220.281818 
L 227.9407 234.009091 
L 228.703134 261.463636 
L 229.465567 234.009091 
L 230.228001 179.1 
L 230.990435 234.009091 
L 231.752869 234.009091 
L 232.515303 192.827273 
L 233.277737 192.827273 
L 234.802605 220.281818 
L 236.327473 220.281818 
L 237.089907 247.736364 
L 237.852341 247.736364 
L 238.614775 206.554545 
L 239.377209 261.463636 
L 240.139643 261.463636 
L 240.902077 206.554545 
L 241.664511 220.281818 
L 242.426945 206.554545 
L 243.189379 234.009091 
L 243.951813 165.372727 
L 244.714247 220.281818 
L 245.476681 165.372727 
L 246.239115 206.554545 
L 247.763983 206.554545 
L 248.526416 179.1 
L 250.051284 179.1 
L 250.813718 165.372727 
L 251.576152 192.827273 
L 253.863454 192.827273 
L 254.625888 179.1 
L 255.388322 234.009091 
L 256.150756 234.009091 
L 256.91319 206.554545 
L 257.675624 69.281818 
L 259.200492 179.1 
L 261.487794 179.1 
L 262.250228 206.554545 
L 263.012662 206.554545 
L 263.775096 192.827273 
L 264.53753 192.827273 
L 265.299964 206.554545 
L 266.062398 234.009091 
L 266.824831 206.554545 
L 267.587265 206.554545 
L 268.349699 179.1 
L 269.112133 192.827273 
L 269.874567 220.281818 
L 270.637001 220.281818 
L 271.399435 192.827273 
L 272.161869 206.554545 
L 273.686737 206.554545 
L 274.449171 165.372727 
L 275.211605 137.918182 
L 275.974039 179.1 
L 276.736473 206.554545 
L 277.498907 151.645455 
L 278.261341 192.827273 
L 279.023775 220.281818 
L 280.548643 165.372727 
L 281.311077 165.372727 
L 282.073511 206.554545 
L 283.598379 206.554545 
L 284.360813 179.1 
L 285.123246 192.827273 
L 285.88568 220.281818 
L 286.648114 220.281818 
L 287.410548 179.1 
L 288.172982 192.827273 
L 288.935416 192.827273 
L 289.69785 220.281818 
L 290.460284 220.281818 
L 291.222718 247.736364 
L 291.985152 220.281818 
L 292.747586 206.554545 
L 293.51002 234.009091 
L 294.272454 206.554545 
L 295.034888 192.827273 
L 295.797322 220.281818 
L 296.559756 192.827273 
L 297.32219 234.009091 
L 298.084624 206.554545 
L 298.847058 137.918182 
L 299.609492 206.554545 
L 300.371926 179.1 
L 301.13436 179.1 
L 301.896794 206.554545 
L 302.659228 220.281818 
L 303.421662 247.736364 
L 304.184095 220.281818 
L 304.946529 234.009091 
L 305.708963 234.009091 
L 306.471397 220.281818 
L 307.233831 220.281818 
L 307.996265 206.554545 
L 308.758699 206.554545 
L 309.521133 220.281818 
L 310.283567 220.281818 
L 311.046001 179.1 
L 311.808435 206.554545 
L 312.570869 151.645455 
L 313.333303 192.827273 
L 314.095737 179.1 
L 314.858171 206.554545 
L 315.620605 151.645455 
L 316.383039 192.827273 
L 317.145473 165.372727 
L 317.907907 192.827273 
L 318.670341 192.827273 
L 319.432775 179.1 
L 320.195209 192.827273 
L 320.957643 192.827273 
L 321.720077 96.736364 
L 322.48251 179.1 
L 323.244944 192.827273 
L 324.007378 96.736364 
L 324.769812 165.372727 
L 325.532246 220.281818 
L 326.29468 192.827273 
L 327.057114 206.554545 
L 330.869284 206.554545 
L 331.631718 234.009091 
L 332.394152 234.009091 
L 333.156586 179.1 
L 333.91902 192.827273 
L 334.681454 220.281818 
L 335.443888 220.281818 
L 336.206322 179.1 
L 336.968756 234.009091 
L 337.73119 206.554545 
L 339.256058 206.554545 
L 340.018492 192.827273 
L 340.780925 192.827273 
L 341.543359 96.736364 
L 342.305793 165.372727 
L 343.068227 192.827273 
L 343.830661 206.554545 
L 344.593095 206.554545 
L 345.355529 137.918182 
L 346.117963 179.1 
L 346.880397 179.1 
L 347.642831 220.281818 
L 348.405265 220.281818 
L 349.167699 179.1 
L 349.930133 206.554545 
L 351.455001 151.645455 
L 352.217435 179.1 
L 352.979869 179.1 
L 354.504737 151.645455 
L 355.267171 206.554545 
L 356.029605 151.645455 
L 356.792039 220.281818 
L 357.554473 192.827273 
L 358.316907 179.1 
L 359.07934 192.827273 
L 359.841774 220.281818 
L 360.604208 192.827273 
L 361.366642 137.918182 
L 362.129076 179.1 
L 362.89151 206.554545 
L 363.653944 206.554545 
L 364.416378 192.827273 
L 367.466114 192.827273 
L 368.228548 151.645455 
L 368.990982 206.554545 
L 369.753416 179.1 
L 370.51585 165.372727 
L 371.278284 179.1 
L 372.040718 179.1 
L 372.803152 220.281818 
L 373.565586 220.281818 
L 374.32802 165.372727 
L 375.852888 220.281818 
L 376.615322 179.1 
L 377.377756 206.554545 
L 378.140189 220.281818 
L 378.902623 192.827273 
L 379.665057 206.554545 
L 380.427491 192.827273 
L 381.189925 220.281818 
L 381.952359 206.554545 
L 382.714793 206.554545 
L 383.477227 220.281818 
L 384.239661 206.554545 
L 385.002095 234.009091 
L 385.764529 192.827273 
L 386.526963 220.281818 
L 387.289397 206.554545 
L 388.051831 206.554545 
L 388.814265 220.281818 
L 389.576699 192.827273 
L 390.339133 234.009091 
L 391.101567 192.827273 
L 391.864001 220.281818 
L 392.626435 206.554545 
L 393.388869 206.554545 
L 394.151303 220.281818 
L 394.913737 192.827273 
L 395.676171 234.009091 
L 396.438604 179.1 
L 397.201038 247.736364 
L 397.963472 206.554545 
L 398.725906 234.009091 
L 399.48834 206.554545 
L 400.250774 151.645455 
L 401.013208 247.736364 
L 401.775642 275.190909 
L 403.30051 275.190909 
L 404.062944 261.463636 
L 407.11268 261.463636 
L 407.875114 220.281818 
L 408.637548 220.281818 
L 409.399982 234.009091 
L 410.162416 234.009091 
L 410.92485 206.554545 
L 411.687284 206.554545 
L 412.449718 220.281818 
L 413.212152 247.736364 
L 413.974586 247.736364 
L 414.737019 220.281818 
L 415.499453 137.918182 
L 417.024321 220.281818 
L 417.786755 220.281818 
L 418.549189 234.009091 
L 419.311623 179.1 
L 420.074057 247.736364 
L 420.836491 137.918182 
L 421.598925 261.463636 
L 422.361359 234.009091 
L 424.648661 234.009091 
L 425.411095 179.1 
L 426.173529 206.554545 
L 426.935963 179.1 
L 427.698397 220.281818 
L 428.460831 220.281818 
L 429.223265 192.827273 
L 429.985699 206.554545 
L 431.510567 206.554545 
L 432.273001 192.827273 
L 433.035435 192.827273 
L 433.797868 179.1 
L 434.560302 192.827273 
L 435.322736 192.827273 
L 436.08517 206.554545 
L 436.847604 151.645455 
L 437.610038 192.827273 
L 438.372472 179.1 
L 439.134906 179.1 
L 439.89734 192.827273 
L 440.659774 165.372727 
L 441.422208 165.372727 
L 442.184642 220.281818 
L 442.947076 192.827273 
L 443.70951 206.554545 
L 444.471944 137.918182 
L 445.234378 192.827273 
L 446.759246 192.827273 
L 447.52168 165.372727 
L 448.284114 151.645455 
L 449.808982 206.554545 
L 450.571416 192.827273 
L 451.33385 151.645455 
L 452.096283 206.554545 
L 452.858717 206.554545 
L 453.621151 192.827273 
L 454.383585 151.645455 
L 455.146019 151.645455 
L 455.908453 192.827273 
L 456.670887 206.554545 
L 457.433321 192.827273 
L 458.195755 247.736364 
L 458.958189 275.190909 
L 459.720623 247.736364 
L 460.483057 234.009091 
L 461.245491 206.554545 
L 462.007925 220.281818 
L 462.770359 179.1 
L 463.532793 234.009091 
L 465.057661 234.009091 
L 465.820095 179.1 
L 467.344963 206.554545 
L 468.107397 206.554545 
L 468.869831 220.281818 
L 469.632265 247.736364 
L 470.394698 247.736364 
L 471.157132 220.281818 
L 471.919566 261.463636 
L 473.444434 261.463636 
L 474.969302 206.554545 
L 475.731736 192.827273 
L 476.49417 220.281818 
L 477.256604 206.554545 
L 478.019038 179.1 
L 478.781472 220.281818 
L 479.543906 165.372727 
L 480.30634 247.736364 
L 481.068774 275.190909 
L 481.831208 247.736364 
L 482.593642 261.463636 
L 483.356076 261.463636 
L 484.11851 234.009091 
L 484.880944 220.281818 
L 485.643378 151.645455 
L 486.405812 234.009091 
L 487.168246 179.1 
L 487.93068 220.281818 
L 488.693113 192.827273 
L 489.455547 206.554545 
L 490.217981 206.554545 
L 490.980415 179.1 
L 491.742849 192.827273 
L 492.505283 137.918182 
L 493.267717 206.554545 
L 494.030151 206.554545 
L 494.792585 192.827273 
L 496.317453 192.827273 
L 497.079887 137.918182 
L 497.842321 192.827273 
L 498.604755 206.554545 
L 499.367189 234.009091 
L 500.129623 234.009091 
L 501.654491 179.1 
L 502.416925 179.1 
L 503.179359 151.645455 
L 503.941793 151.645455 
L 504.704227 179.1 
L 505.466661 179.1 
L 506.229095 206.554545 
L 506.991529 206.554545 
L 507.753962 165.372727 
L 508.516396 192.827273 
L 509.27883 234.009091 
L 510.041264 234.009091 
L 510.803698 206.554545 
L 511.566132 192.827273 
L 512.328566 220.281818 
L 513.853434 220.281818 
L 514.615868 192.827273 
L 515.378302 137.918182 
L 516.140736 206.554545 
L 516.90317 206.554545 
L 517.665604 179.1 
L 518.428038 192.827273 
L 519.190472 192.827273 
L 519.952906 151.645455 
L 520.71534 192.827273 
L 522.240208 192.827273 
L 523.002642 165.372727 
L 523.765076 206.554545 
L 526.814811 206.554545 
L 527.577245 96.736364 
L 528.339679 192.827273 
L 529.102113 220.281818 
L 529.864547 220.281818 
L 530.626981 165.372727 
L 531.389415 206.554545 
L 532.151849 220.281818 
L 536.726453 220.281818 
L 537.488887 206.554545 
L 538.251321 206.554545 
L 539.013755 179.1 
L 539.776189 220.281818 
L 540.538623 206.554545 
L 541.301057 206.554545 
L 542.063491 220.281818 
L 542.825925 220.281818 
L 543.588359 234.009091 
L 544.350792 234.009091 
L 545.113226 206.554545 
L 545.87566 206.554545 
L 546.638094 247.736364 
L 547.400528 247.736364 
L 548.162962 220.281818 
L 548.925396 261.463636 
L 549.68783 234.009091 
L 550.450264 192.827273 
L 551.212698 220.281818 
L 552.737566 192.827273 
L 553.5 220.281818 
L 554.262434 220.281818 
L 555.024868 206.554545 
L 556.549736 206.554545 
L 557.31217 192.827273 
L 558.074604 165.372727 
L 558.837038 179.1 
L 559.599472 179.1 
L 560.361906 151.645455 
L 561.12434 192.827273 
L 564.174075 192.827273 
L 564.936509 165.372727 
L 565.698943 206.554545 
L 566.461377 151.645455 
L 567.223811 220.281818 
L 567.986245 165.372727 
L 569.511113 192.827273 
L 570.273547 165.372727 
L 571.035981 206.554545 
L 574.848151 206.554545 
L 575.610585 234.009091 
L 576.373019 179.1 
L 577.135453 220.281818 
L 577.897887 192.827273 
L 578.660321 192.827273 
L 579.422755 220.281818 
L 580.185189 206.554545 
L 580.947623 234.009091 
L 582.47249 179.1 
L 583.234924 206.554545 
L 583.997358 192.827273 
L 584.759792 220.281818 
L 585.522226 192.827273 
L 586.28466 179.1 
L 587.047094 179.1 
L 587.809528 206.554545 
L 588.571962 206.554545 
L 589.334396 179.1 
L 590.09683 179.1 
L 590.859264 165.372727 
L 591.621698 192.827273 
L 592.384132 165.372727 
L 593.146566 179.1 
L 593.909 165.372727 
L 594.671434 192.827273 
L 595.433868 179.1 
L 596.196302 206.554545 
L 596.958736 179.1 
L 599.246038 179.1 
L 600.008471 192.827273 
L 601.533339 192.827273 
L 602.295773 165.372727 
L 603.058207 220.281818 
L 603.820641 192.827273 
L 604.583075 179.1 
L 605.345509 151.645455 
L 606.870377 206.554545 
L 607.632811 151.645455 
L 608.395245 220.281818 
L 609.157679 192.827273 
L 609.920113 192.827273 
L 610.682547 220.281818 
L 611.444981 192.827273 
L 612.207415 206.554545 
L 612.969849 206.554545 
L 613.732283 165.372727 
L 614.494717 179.1 
L 615.257151 179.1 
L 616.019585 220.281818 
L 616.782019 220.281818 
L 617.544453 192.827273 
L 618.306887 192.827273 
L 619.06932 220.281818 
L 619.831754 220.281818 
L 620.594188 179.1 
L 621.356622 179.1 
L 622.119056 192.827273 
L 622.88149 137.918182 
L 623.643924 206.554545 
L 624.406358 192.827273 
L 625.168792 220.281818 
L 625.931226 179.1 
L 626.69366 206.554545 
L 627.456094 192.827273 
L 628.218528 165.372727 
L 628.980962 206.554545 
L 629.743396 179.1 
L 630.50583 220.281818 
L 631.268264 179.1 
L 632.030698 206.554545 
L 632.793132 220.281818 
L 633.555566 220.281818 
L 634.318 206.554545 
L 635.080434 165.372727 
L 635.842868 247.736364 
L 636.605302 220.281818 
L 637.367735 234.009091 
L 638.130169 192.827273 
L 638.892603 220.281818 
L 639.655037 234.009091 
L 640.417471 234.009091 
L 641.179905 220.281818 
L 641.942339 220.281818 
L 642.704773 206.554545 
L 644.229641 234.009091 
L 644.992075 234.009091 
L 645.754509 275.190909 
L 647.279377 275.190909 
L 648.041811 247.736364 
L 648.804245 261.463636 
L 649.566679 261.463636 
L 650.329113 288.918182 
L 651.091547 261.463636 
L 651.853981 261.463636 
L 652.616415 220.281818 
L 653.378849 206.554545 
L 654.141283 234.009091 
L 654.903717 234.009091 
L 655.66615 206.554545 
L 656.428584 220.281818 
L 657.191018 247.736364 
L 657.953452 247.736364 
L 658.715886 220.281818 
L 659.47832 234.009091 
L 660.240754 234.009091 
L 661.003188 247.736364 
L 661.765622 247.736364 
L 662.528056 206.554545 
L 663.29049 206.554545 
L 664.815358 234.009091 
L 665.577792 261.463636 
L 666.340226 234.009091 
L 668.627528 234.009091 
L 669.389962 179.1 
L 670.152396 179.1 
L 670.91483 165.372727 
L 671.677264 220.281818 
L 672.439698 192.827273 
L 673.202132 179.1 
L 673.964565 206.554545 
L 675.489433 206.554545 
L 676.251867 192.827273 
L 677.014301 192.827273 
L 677.776735 206.554545 
L 678.539169 192.827273 
L 679.301603 220.281818 
L 680.064037 206.554545 
L 680.826471 206.554545 
L 681.588905 192.827273 
L 682.351339 192.827273 
L 683.113773 96.736364 
L 683.876207 192.827273 
L 684.638641 165.372727 
L 685.401075 110.463636 
L 686.163509 192.827273 
L 686.925943 165.372727 
L 687.688377 206.554545 
L 688.450811 165.372727 
L 689.213245 220.281818 
L 690.738113 165.372727 
L 691.500547 192.827273 
L 692.262981 192.827273 
L 693.025414 206.554545 
L 693.787848 206.554545 
L 694.550282 165.372727 
L 695.312716 165.372727 
L 696.07515 206.554545 
L 696.837584 206.554545 
L 697.600018 192.827273 
L 698.362452 192.827273 
L 699.124886 179.1 
L 700.649754 206.554545 
L 701.412188 206.554545 
L 702.174622 247.736364 
L 704.461924 247.736364 
L 705.224358 220.281818 
L 705.986792 206.554545 
L 706.749226 234.009091 
L 708.274094 234.009091 
L 709.798962 179.1 
L 710.561396 206.554545 
L 711.323829 206.554545 
L 712.086263 220.281818 
L 713.611131 220.281818 
L 714.373565 192.827273 
L 715.135999 206.554545 
L 715.898433 261.463636 
L 717.423301 261.463636 
L 718.185735 234.009091 
L 718.948169 192.827273 
L 719.710603 220.281818 
L 720.473037 124.190909 
L 721.235471 206.554545 
L 721.997905 192.827273 
L 722.760339 192.827273 
L 723.522773 234.009091 
L 724.285207 247.736364 
L 725.047641 275.190909 
L 725.810075 247.736364 
L 726.572509 261.463636 
L 727.334943 261.463636 
L 728.097377 234.009091 
L 728.859811 247.736364 
L 729.622244 234.009091 
L 730.384678 234.009091 
L 731.147112 220.281818 
L 731.909546 220.281818 
L 732.67198 206.554545 
L 734.959282 206.554545 
L 735.721716 192.827273 
L 736.48415 137.918182 
L 737.246584 206.554545 
L 738.009018 179.1 
L 738.771452 220.281818 
L 739.533886 220.281818 
L 741.058754 165.372727 
L 741.821188 165.372727 
L 742.583622 206.554545 
L 746.395792 206.554545 
L 747.158226 179.1 
L 747.92066 192.827273 
L 748.683093 192.827273 
L 749.445527 179.1 
L 750.207961 206.554545 
L 750.970395 206.554545 
L 751.732829 151.645455 
L 752.495263 179.1 
L 753.257697 234.009091 
L 754.020131 234.009091 
L 754.782565 206.554545 
L 755.544999 192.827273 
L 756.307433 220.281818 
L 757.832301 220.281818 
L 758.594735 165.372727 
L 759.357169 206.554545 
L 760.882037 206.554545 
L 761.644471 192.827273 
L 763.169339 192.827273 
L 763.931773 151.645455 
L 765.456641 179.1 
L 766.219075 206.554545 
L 766.981508 206.554545 
L 767.743942 179.1 
L 768.506376 96.736364 
L 769.26881 179.1 
L 770.031244 206.554545 
L 770.793678 179.1 
L 771.556112 192.827273 
L 773.843414 192.827273 
L 774.605848 206.554545 
L 775.368282 192.827273 
L 776.130716 220.281818 
L 781.467754 220.281818 
L 782.230188 206.554545 
L 782.992622 206.554545 
L 783.755056 179.1 
L 784.51749 206.554545 
L 785.279923 206.554545 
L 786.042357 192.827273 
L 786.804791 220.281818 
L 787.567225 179.1 
L 788.329659 206.554545 
L 789.854527 206.554545 
L 790.616961 247.736364 
L 791.379395 247.736364 
L 792.141829 220.281818 
L 792.904263 234.009091 
L 793.666697 234.009091 
L 795.191565 179.1 
L 795.953999 206.554545 
L 796.716433 220.281818 
L 797.478867 220.281818 
L 798.241301 192.827273 
L 799.003735 234.009091 
L 799.766169 234.009091 
L 800.528603 206.554545 
L 801.291037 192.827273 
L 802.815905 192.827273 
L 803.578338 151.645455 
L 804.340772 192.827273 
L 805.103206 220.281818 
L 805.86564 220.281818 
L 806.628074 165.372727 
L 807.390508 179.1 
L 808.152942 137.918182 
L 808.915376 206.554545 
L 809.67781 206.554545 
L 810.440244 165.372727 
L 811.202678 192.827273 
L 811.965112 179.1 
L 812.727546 206.554545 
L 813.48998 137.918182 
L 814.252414 192.827273 
L 815.014848 165.372727 
L 815.777282 179.1 
L 816.539716 206.554545 
L 819.589452 206.554545 
L 820.351886 151.645455 
L 821.11432 192.827273 
L 821.876754 151.645455 
L 822.639187 192.827273 
L 823.401621 220.281818 
L 824.164055 206.554545 
L 824.926489 234.009091 
L 825.688923 206.554545 
L 826.451357 165.372727 
L 827.976225 192.827273 
L 828.738659 192.827273 
L 829.501093 137.918182 
L 830.263527 206.554545 
L 831.788395 206.554545 
L 832.550829 151.645455 
L 833.313263 192.827273 
L 834.075697 110.463636 
L 834.838131 151.645455 
L 835.600565 165.372727 
L 836.362999 165.372727 
L 837.887867 220.281818 
L 838.650301 179.1 
L 839.412735 206.554545 
L 840.175169 206.554545 
L 840.937602 179.1 
L 841.700036 179.1 
L 842.46247 137.918182 
L 843.224904 192.827273 
L 843.987338 192.827273 
L 844.749772 165.372727 
L 845.512206 165.372727 
L 846.27464 192.827273 
L 847.799508 192.827273 
L 849.324376 165.372727 
L 850.08681 110.463636 
L 850.849244 206.554545 
L 851.611678 192.827273 
L 852.374112 220.281818 
L 853.136546 192.827273 
L 853.89898 179.1 
L 854.661414 192.827273 
L 855.423848 96.736364 
L 856.186282 206.554545 
L 856.948716 206.554545 
L 857.71115 192.827273 
L 858.473584 206.554545 
L 859.236017 137.918182 
L 859.998451 220.281818 
L 860.760885 220.281818 
L 861.523319 192.827273 
L 862.285753 220.281818 
L 863.048187 220.281818 
L 863.810621 165.372727 
L 864.573055 192.827273 
L 865.335489 192.827273 
L 866.097923 206.554545 
L 866.860357 179.1 
L 867.622791 192.827273 
L 868.385225 165.372727 
L 869.910093 192.827273 
L 870.672527 179.1 
L 871.434961 206.554545 
L 872.197395 192.827273 
L 872.959829 220.281818 
L 873.722263 206.554545 
L 874.484697 206.554545 
L 875.247131 220.281818 
L 876.009565 165.372727 
L 876.771999 206.554545 
L 877.534433 220.281818 
L 878.296866 192.827273 
L 879.821734 220.281818 
L 880.584168 192.827273 
L 881.346602 234.009091 
L 882.109036 206.554545 
L 882.87147 220.281818 
L 883.633904 206.554545 
L 884.396338 206.554545 
L 885.158772 220.281818 
L 885.921206 206.554545 
L 886.68364 234.009091 
L 887.446074 247.736364 
L 888.208508 220.281818 
L 888.970942 261.463636 
L 889.733376 247.736364 
L 890.49581 275.190909 
L 892.020678 275.190909 
L 892.783112 234.009091 
L 894.30798 288.918182 
L 895.070414 288.918182 
L 895.832848 261.463636 
L 896.595281 179.1 
L 897.357715 206.554545 
L 898.120149 206.554545 
L 898.882583 179.1 
L 899.645017 192.827273 
L 901.169885 247.736364 
L 901.932319 220.281818 
L 902.694753 206.554545 
L 903.457187 234.009091 
L 904.219621 192.827273 
L 904.982055 247.736364 
L 905.744489 247.736364 
L 906.506923 192.827273 
L 908.031791 192.827273 
L 908.794225 234.009091 
L 911.843961 234.009091 
L 912.606395 206.554545 
L 913.368829 192.827273 
L 914.131263 206.554545 
L 914.893696 151.645455 
L 915.65613 220.281818 
L 916.418564 165.372727 
L 917.943432 192.827273 
L 918.705866 179.1 
L 919.4683 206.554545 
L 920.230734 206.554545 
L 920.993168 179.1 
L 921.755602 206.554545 
L 922.518036 192.827273 
L 923.28047 220.281818 
L 924.042904 165.372727 
L 925.567772 192.827273 
L 926.330206 192.827273 
L 927.09264 165.372727 
L 927.855074 192.827273 
L 928.617508 110.463636 
L 929.379942 179.1 
L 930.142376 165.372727 
L 930.90481 192.827273 
L 931.667244 137.918182 
L 933.192111 192.827273 
L 933.954545 192.827273 
L 933.954545 192.827273 
" style="fill:none;stroke:#2ca02c;stroke-linecap:square;stroke-width:1.5;"/>
   </g>
   <g id="patch_3">
    <path d="M 135 315 
L 135 43.2 
" style="fill:none;stroke:#000000;stroke-linecap:square;stroke-linejoin:miter;stroke-width:0.8;"/>
   </g>
   <g id="patch_4">
    <path d="M 972 315 
L 972 43.2 
" style="fill:none;stroke:#000000;stroke-linecap:square;stroke-linejoin:miter;stroke-width:0.8;"/>
   </g>
   <g id="patch_5">
    <path d="M 135 315 
L 972 315 
" style="fill:none;stroke:#000000;stroke-linecap:square;stroke-linejoin:miter;stroke-width:0.8;"/>
   </g>
   <g id="patch_6">
    <path d="M 135 43.2 
L 972 43.2 
" style="fill:none;stroke:#000000;stroke-linecap:square;stroke-linejoin:miter;stroke-width:0.8;"/>
   </g>
   <g id="legend_1">
    <g id="patch_7">
     <path d="M 896.540625 96.06875 
L 965 96.06875 
Q 967 96.06875 967 94.06875 
L 967 50.2 
Q 967 48.2 965 48.2 
L 896.540625 48.2 
Q 894.540625 48.2 894.540625 50.2 
L 894.540625 94.06875 
Q 894.540625 96.06875 896.540625 96.06875 
z
" style="fill:#ffffff;opacity:0.8;stroke:#cccccc;stroke-linejoin:miter;"/>
    </g>
    <g id="line2d_17">
     <path d="M 898.540625 56.298438 
L 918.540625 56.298438 
" style="fill:none;stroke:#1f77b4;stroke-linecap:square;stroke-width:1.5;"/>
    </g>
    <g id="line2d_18"/>
    <g id="text_14">
     <!-- lzc_xor -->
     <defs>
      <path d="M 9.421875 75.984375 
L 18.40625 75.984375 
L 18.40625 0 
L 9.421875 0 
z
" id="DejaVuSans-108"/>
      <path d="M 5.515625 54.6875 
L 48.1875 54.6875 
L 48.1875 46.484375 
L 14.40625 7.171875 
L 48.1875 7.171875 
L 48.1875 0 
L 4.296875 0 
L 4.296875 8.203125 
L 38.09375 47.515625 
L 5.515625 47.515625 
z
" id="DejaVuSans-122"/>
      <path d="M 48.78125 52.59375 
L 48.78125 44.1875 
Q 44.96875 46.296875 41.140625 47.34375 
Q 37.3125 48.390625 33.40625 48.390625 
Q 24.65625 48.390625 19.8125 42.84375 
Q 14.984375 37.3125 14.984375 27.296875 
Q 14.984375 17.28125 19.8125 11.734375 
Q 24.65625 6.203125 33.40625 6.203125 
Q 37.3125 6.203125 41.140625 7.25 
Q 44.96875 8.296875 48.78125 10.40625 
L 48.78125 2.09375 
Q 45.015625 0.34375 40.984375 -0.53125 
Q 36.96875 -1.421875 32.421875 -1.421875 
Q 20.0625 -1.421875 12.78125 6.34375 
Q 5.515625 14.109375 5.515625 27.296875 
Q 5.515625 40.671875 12.859375 48.328125 
Q 20.21875 56 33.015625 56 
Q 37.15625 56 41.109375 55.140625 
Q 45.0625 54.296875 48.78125 52.59375 
z
" id="DejaVuSans-99"/>
      <path d="M 50.984375 -16.609375 
L 50.984375 -23.578125 
L -0.984375 -23.578125 
L -0.984375 -16.609375 
z
" id="DejaVuSans-95"/>
      <path d="M 54.890625 54.6875 
L 35.109375 28.078125 
L 55.90625 0 
L 45.3125 0 
L 29.390625 21.484375 
L 13.484375 0 
L 2.875 0 
L 24.125 28.609375 
L 4.6875 54.6875 
L 15.28125 54.6875 
L 29.78125 35.203125 
L 44.28125 54.6875 
z
" id="DejaVuSans-120"/>
      <path d="M 30.609375 48.390625 
Q 23.390625 48.390625 19.1875 42.75 
Q 14.984375 37.109375 14.984375 27.296875 
Q 14.984375 17.484375 19.15625 11.84375 
Q 23.34375 6.203125 30.609375 6.203125 
Q 37.796875 6.203125 41.984375 11.859375 
Q 46.1875 17.53125 46.1875 27.296875 
Q 46.1875 37.015625 41.984375 42.703125 
Q 37.796875 48.390625 30.609375 48.390625 
z
M 30.609375 56 
Q 42.328125 56 49.015625 48.375 
Q 55.71875 40.765625 55.71875 27.296875 
Q 55.71875 13.875 49.015625 6.21875 
Q 42.328125 -1.421875 30.609375 -1.421875 
Q 18.84375 -1.421875 12.171875 6.21875 
Q 5.515625 13.875 5.515625 27.296875 
Q 5.515625 40.765625 12.171875 48.375 
Q 18.84375 56 30.609375 56 
z
" id="DejaVuSans-111"/>
      <path d="M 41.109375 46.296875 
Q 39.59375 47.171875 37.8125 47.578125 
Q 36.03125 48 33.890625 48 
Q 26.265625 48 22.1875 43.046875 
Q 18.109375 38.09375 18.109375 28.8125 
L 18.109375 0 
L 9.078125 0 
L 9.078125 54.6875 
L 18.109375 54.6875 
L 18.109375 46.1875 
Q 20.953125 51.171875 25.484375 53.578125 
Q 30.03125 56 36.53125 56 
Q 37.453125 56 38.578125 55.875 
Q 39.703125 55.765625 41.0625 55.515625 
z
" id="DejaVuSans-114"/>
     </defs>
     <g transform="translate(926.540625 59.798438)scale(0.1 -0.1)">
      <use xlink:href="#DejaVuSans-108"/>
      <use x="27.783203" xlink:href="#DejaVuSans-122"/>
      <use x="80.273438" xlink:href="#DejaVuSans-99"/>
      <use x="135.253906" xlink:href="#DejaVuSans-95"/>
      <use x="185.253906" xlink:href="#DejaVuSans-120"/>
      <use x="244.386719" xlink:href="#DejaVuSans-111"/>
      <use x="305.568359" xlink:href="#DejaVuSans-114"/>
     </g>
    </g>
    <g id="line2d_19">
     <path d="M 898.540625 71.254688 
L 918.540625 71.254688 
" style="fill:none;stroke:#ff7f0e;stroke-linecap:square;stroke-width:1.5;"/>
    </g>
    <g id="line2d_20"/>
    <g id="text_15">
     <!-- lzc_diff -->
     <defs>
      <path d="M 45.40625 46.390625 
L 45.40625 75.984375 
L 54.390625 75.984375 
L 54.390625 0 
L 45.40625 0 
L 45.40625 8.203125 
Q 42.578125 3.328125 38.25 0.953125 
Q 33.9375 -1.421875 27.875 -1.421875 
Q 17.96875 -1.421875 11.734375 6.484375 
Q 5.515625 14.40625 5.515625 27.296875 
Q 5.515625 40.1875 11.734375 48.09375 
Q 17.96875 56 27.875 56 
Q 33.9375 56 38.25 53.625 
Q 42.578125 51.265625 45.40625 46.390625 
z
M 14.796875 27.296875 
Q 14.796875 17.390625 18.875 11.75 
Q 22.953125 6.109375 30.078125 6.109375 
Q 37.203125 6.109375 41.296875 11.75 
Q 45.40625 17.390625 45.40625 27.296875 
Q 45.40625 37.203125 41.296875 42.84375 
Q 37.203125 48.484375 30.078125 48.484375 
Q 22.953125 48.484375 18.875 42.84375 
Q 14.796875 37.203125 14.796875 27.296875 
z
" id="DejaVuSans-100"/>
      <path d="M 9.421875 54.6875 
L 18.40625 54.6875 
L 18.40625 0 
L 9.421875 0 
z
M 9.421875 75.984375 
L 18.40625 75.984375 
L 18.40625 64.59375 
L 9.421875 64.59375 
z
" id="DejaVuSans-105"/>
      <path d="M 37.109375 75.984375 
L 37.109375 68.5 
L 28.515625 68.5 
Q 23.6875 68.5 21.796875 66.546875 
Q 19.921875 64.59375 19.921875 59.515625 
L 19.921875 54.6875 
L 34.71875 54.6875 
L 34.71875 47.703125 
L 19.921875 47.703125 
L 19.921875 0 
L 10.890625 0 
L 10.890625 47.703125 
L 2.296875 47.703125 
L 2.296875 54.6875 
L 10.890625 54.6875 
L 10.890625 58.5 
Q 10.890625 67.625 15.140625 71.796875 
Q 19.390625 75.984375 28.609375 75.984375 
z
" id="DejaVuSans-102"/>
     </defs>
     <g transform="translate(926.540625 74.754688)scale(0.1 -0.1)">
      <use xlink:href="#DejaVuSans-108"/>
      <use x="27.783203" xlink:href="#DejaVuSans-122"/>
      <use x="80.273438" xlink:href="#DejaVuSans-99"/>
      <use x="135.253906" xlink:href="#DejaVuSans-95"/>
      <use x="185.253906" xlink:href="#DejaVuSans-100"/>
      <use x="248.730469" xlink:href="#DejaVuSans-105"/>
      <use x="276.513672" xlink:href="#DejaVuSans-102"/>
      <use x="311.71875" xlink:href="#DejaVuSans-102"/>
     </g>
    </g>
    <g id="line2d_21">
     <path d="M 898.540625 86.210938 
L 918.540625 86.210938 
" style="fill:none;stroke:#2ca02c;stroke-linecap:square;stroke-width:1.5;"/>
    </g>
    <g id="line2d_22"/>
    <g id="text_16">
     <!-- lzc_s31 -->
     <defs>
      <path d="M 44.28125 53.078125 
L 44.28125 44.578125 
Q 40.484375 46.53125 36.375 47.5 
Q 32.28125 48.484375 27.875 48.484375 
Q 21.1875 48.484375 17.84375 46.4375 
Q 14.5 44.390625 14.5 40.28125 
Q 14.5 37.15625 16.890625 35.375 
Q 19.28125 33.59375 26.515625 31.984375 
L 29.59375 31.296875 
Q 39.15625 29.25 43.1875 25.515625 
Q 47.21875 21.78125 47.21875 15.09375 
Q 47.21875 7.46875 41.1875 3.015625 
Q 35.15625 -1.421875 24.609375 -1.421875 
Q 20.21875 -1.421875 15.453125 -0.5625 
Q 10.6875 0.296875 5.421875 2 
L 5.421875 11.28125 
Q 10.40625 8.6875 15.234375 7.390625 
Q 20.0625 6.109375 24.8125 6.109375 
Q 31.15625 6.109375 34.5625 8.28125 
Q 37.984375 10.453125 37.984375 14.40625 
Q 37.984375 18.0625 35.515625 20.015625 
Q 33.0625 21.96875 24.703125 23.78125 
L 21.578125 24.515625 
Q 13.234375 26.265625 9.515625 29.90625 
Q 5.8125 33.546875 5.8125 39.890625 
Q 5.8125 47.609375 11.28125 51.796875 
Q 16.75 56 26.8125 56 
Q 31.78125 56 36.171875 55.265625 
Q 40.578125 54.546875 44.28125 53.078125 
z
" id="DejaVuSans-115"/>
      <path d="M 40.578125 39.3125 
Q 47.65625 37.796875 51.625 33 
Q 55.609375 28.21875 55.609375 21.1875 
Q 55.609375 10.40625 48.1875 4.484375 
Q 40.765625 -1.421875 27.09375 -1.421875 
Q 22.515625 -1.421875 17.65625 -0.515625 
Q 12.796875 0.390625 7.625 2.203125 
L 7.625 11.71875 
Q 11.71875 9.328125 16.59375 8.109375 
Q 21.484375 6.890625 26.8125 6.890625 
Q 36.078125 6.890625 40.9375 10.546875 
Q 45.796875 14.203125 45.796875 21.1875 
Q 45.796875 27.640625 41.28125 31.265625 
Q 36.765625 34.90625 28.71875 34.90625 
L 20.21875 34.90625 
L 20.21875 43.015625 
L 29.109375 43.015625 
Q 36.375 43.015625 40.234375 45.921875 
Q 44.09375 48.828125 44.09375 54.296875 
Q 44.09375 59.90625 40.109375 62.90625 
Q 36.140625 65.921875 28.71875 65.921875 
Q 24.65625 65.921875 20.015625 65.03125 
Q 15.375 64.15625 9.8125 62.3125 
L 9.8125 71.09375 
Q 15.4375 72.65625 20.34375 73.4375 
Q 25.25 74.21875 29.59375 74.21875 
Q 40.828125 74.21875 47.359375 69.109375 
Q 53.90625 64.015625 53.90625 55.328125 
Q 53.90625 49.265625 50.4375 45.09375 
Q 46.96875 40.921875 40.578125 39.3125 
z
" id="DejaVuSans-51"/>
     </defs>
     <g transform="translate(926.540625 89.710938)scale(0.1 -0.1)">
      <use xlink:href="#DejaVuSans-108"/>
      <use x="27.783203" xlink:href="#DejaVuSans-122"/>
      <use x="80.273438" xlink:href="#DejaVuSans-99"/>
      <use x="135.253906" xlink:href="#DejaVuSans-95"/>
      <use x="185.253906" xlink:href="#DejaVuSans-115"/>
      <use x="237.353516" xlink:href="#DejaVuSans-51"/>
      <use x="300.976562" xlink:href="#DejaVuSans-49"/>
     </g>
    </g>
   </g>
  </g>
 </g>
 <defs>
  <clipPath id="p038b80f09c">
   <rect height="271.8" width="837" x="135" y="43.2"/>
  </clipPath>
 </defs>
</svg>
